<svg xmlns="http://www.w3.org/2000/svg" width="132.662" height="67.808" viewBox="0 0 132.662 67.808">
  <g id="wavelabs-logo" transform="translate(-11.5 -54.582)">
    <path id="Path_10460" data-name="Path 10460" d="M464.427,54.892a36.167,36.167,0,0,0-4.519-.292h0a27.017,27.017,0,0,0-5.643.54c-6.565,1.439-10.184,6.947-15.175,14.568-5.373,8.206-9.172,10.791-9.217,10.814L427.4,82.162l3.08.4a54.943,54.943,0,0,0,6.7.427,25.443,25.443,0,0,0,6.5-.7c4.856-1.371,9.15-9.082,9.689-10.072.225-.36,3.1-5.1,5.126-7.823l.023-.022.022-.022a34.384,34.384,0,0,1,6.565-7.486l1.281-.989a.413.413,0,0,0-.2-.742Z" transform="translate(-322.4 -0.014)" fill="#fff"/>
    <path id="Path_10461" data-name="Path 10461" d="M373.238,67.09l-1.079-1.709a51.755,51.755,0,0,0-3.3-4.721A13.468,13.468,0,0,0,357.974,55.4a9.9,9.9,0,0,0-1.8.135l-.652.112-.292.54-1.484,2.788-.247.472.247.472,2.945,5.823.4.787.45.9h15.917Z" transform="translate(-265.114 -0.634)" fill="#fff"/>
    <path id="Path_10462" data-name="Path 10462" d="M402.2,134.216c-1.371-1.259-3.237-4.384-4.5-6.475-.427-.719-.787-1.326-1.057-1.754-.18-.247-.427-.674-.629-1.012l-.382-.629h-.022L394.9,123.2H378.8l1.394,2.765.36.7h0l.652,1.281v.045c2.361,4.361,5.688,6.632,8,7.284a36.881,36.881,0,0,0,9.24.944c1.641,0,2.788-.067,2.833-.067,0,0,.809-.045,1.012-.045a14.607,14.607,0,0,0,1.731-.225Z" transform="translate(-284.726 -53.192)" fill="#fff"/>
    <path id="Path_10463" data-name="Path 10463" d="M251.258,54.588h0a27.018,27.018,0,0,0-5.643.54c-6.565,1.439-10.184,6.947-15.175,14.568-5.44,8.3-8.79,10.544-8.813,10.566L219.2,81.835l2.99.472a52.294,52.294,0,0,0,7.284.562,21.208,21.208,0,0,0,5.553-.607c4.856-1.326,9.15-9.06,9.689-10.072.225-.382,3.1-5.1,5.126-7.824l.022-.022.022-.022a35.416,35.416,0,0,1,6.542-7.486l1.754-1.461a24.2,24.2,0,0,0-6.924-.787" transform="translate(-161.006 -0.001)" fill="#fff"/>
    <path id="Path_10464" data-name="Path 10464" d="M163.039,67.09l-1.079-1.709a56.621,56.621,0,0,0-3.3-4.721A13.468,13.468,0,0,0,147.774,55.4a9.9,9.9,0,0,0-1.8.135l-.652.112-.292.54-1.484,2.788-.247.472.247.472,2.945,5.823.4.787.45.9h15.917Z" transform="translate(-102.17 -0.634)" fill="#fff"/>
    <path id="Path_10465" data-name="Path 10465" d="M192.158,134.216c-1.371-1.259-3.237-4.384-4.474-6.475-.427-.719-.787-1.326-1.057-1.754-.18-.247-.427-.674-.629-1.012l-.36-.629h-.022L184.9,123.2H168.8l1.394,2.765.36.7h0l.652,1.281v.045c2.383,4.361,5.688,6.632,8,7.284a36.881,36.881,0,0,0,9.24.944c1.641,0,2.788-.067,2.833-.067l2.855-.315Z" transform="translate(-121.937 -53.192)" fill="#fff"/>
    <path id="Path_10466" data-name="Path 10466" d="M42.571,54.586h0a27.018,27.018,0,0,0-5.643.54c-6.565,1.439-10.184,6.947-15.175,14.568-5.44,8.3-8.79,10.544-8.813,10.566l-1.1.719a.6.6,0,0,0,.247,1.1l1.416.225a52.7,52.7,0,0,0,7.284.562,21.208,21.208,0,0,0,5.553-.607c4.856-1.326,9.15-9.06,9.689-10.072.225-.382,3.1-5.1,5.126-7.823l.022-.022.022-.022a35.416,35.416,0,0,1,6.542-7.486l1.754-1.529a24.7,24.7,0,0,0-6.924-.719" transform="translate(-0.046 0)" fill="#fff"/>
    <path id="Path_10467" data-name="Path 10467" d="M11.5,228.9h4.429l3.057,11.083L22.358,228.9h3.372l3.417,11.083L32.16,228.9h4.226l-5.418,15.962H27.1l-3.282-9.644-3.147,9.644H16.918Z" transform="translate(0 -135.129)" fill="#fff"/>
    <path id="Path_10468" data-name="Path 10468" d="M138.176,241.5a5.383,5.383,0,0,1-1.978,1.394,7,7,0,0,1-2.968.607,6.586,6.586,0,0,1-1.956-.315,5.811,5.811,0,0,1-1.776-.922,4.877,4.877,0,0,1-1.3-1.619,5.02,5.02,0,0,1-.495-2.316,5.656,5.656,0,0,1,.517-2.428,4.692,4.692,0,0,1,1.439-1.8,6.077,6.077,0,0,1,2.226-1.1,10.32,10.32,0,0,1,2.855-.382c.315,0,.674,0,1.057.022.382,0,.764.022,1.124.045l1.259.067v-.382a2.176,2.176,0,0,0-.944-1.866,4.2,4.2,0,0,0-2.5-.674,6.916,6.916,0,0,0-2.72.45,12.172,12.172,0,0,0-1.8.944l-1.843-2.72c.315-.225.674-.45,1.079-.7a7.846,7.846,0,0,1,1.439-.652,9.645,9.645,0,0,1,1.888-.472,13.82,13.82,0,0,1,2.5-.18,8.209,8.209,0,0,1,2.765.427,6.346,6.346,0,0,1,2.136,1.192,5.573,5.573,0,0,1,1.371,1.843,5.718,5.718,0,0,1,.472,2.338v10.724h-3.732Zm0-5.71-1.191-.067c-.315-.022-.652-.045-1.012-.045s-.652-.022-.9-.022a3.785,3.785,0,0,0-2.72.764,2.433,2.433,0,0,0-.787,1.754,1.913,1.913,0,0,0,.742,1.6,3.476,3.476,0,0,0,2.158.585,4,4,0,0,0,1.371-.247,3.932,3.932,0,0,0,1.169-.652,3.315,3.315,0,0,0,.832-.944,2.1,2.1,0,0,0,.315-1.147l.023-1.574Z" transform="translate(-90.077 -133.268)" fill="#fff"/>
    <path id="Path_10469" data-name="Path 10469" d="M198.4,228.9h4.609l4.294,11.42L211.6,228.9h4.384l-6.722,15.962h-4.092Z" transform="translate(-144.882 -135.129)" fill="#fff"/>
    <path id="Path_10470" data-name="Path 10470" d="M295.637,240.608l-.562.562a6.334,6.334,0,0,1-1.326.967,10.829,10.829,0,0,1-2.2.922,11.3,11.3,0,0,1-3.215.4,9.045,9.045,0,0,1-3.462-.652,7.9,7.9,0,0,1-2.675-1.8,7.772,7.772,0,0,1-1.709-2.743,9.858,9.858,0,0,1-.585-3.53,9.247,9.247,0,0,1,.585-3.282,7.825,7.825,0,0,1,4.226-4.406,8.146,8.146,0,0,1,3.282-.652,7.705,7.705,0,0,1,3.687.809,6.9,6.9,0,0,1,2.428,2.091,8.657,8.657,0,0,1,1.326,2.923,13.757,13.757,0,0,1,.4,3.327v.584H283.924a3.179,3.179,0,0,0,.4,1.6,4.442,4.442,0,0,0,1.012,1.236,4.7,4.7,0,0,0,1.439.787,4.929,4.929,0,0,0,1.574.27,7.842,7.842,0,0,0,2.023-.225,8.071,8.071,0,0,0,1.484-.517,6.672,6.672,0,0,0,1.012-.607,4.957,4.957,0,0,0,.585-.54Zm-3.912-7.351a3.346,3.346,0,0,0-.247-1.214,3.525,3.525,0,0,0-.7-1.1,3.4,3.4,0,0,0-1.169-.809,3.754,3.754,0,0,0-1.641-.315,4.779,4.779,0,0,0-1.754.315,4.472,4.472,0,0,0-1.281.809,3.685,3.685,0,0,0-.787,1.1,2.968,2.968,0,0,0-.27,1.214Z" transform="translate(-208.06 -133.191)" fill="#fff"/>
    <rect id="Rectangle_274" data-name="Rectangle 274" width="1.529" height="22.706" transform="translate(91.264 87.027)" fill="#fff"/>
    <path id="Path_10471" data-name="Path 10471" d="M402.066,244.552a6.32,6.32,0,0,1-.022-.674,7.95,7.95,0,0,1-.045-.809v-1.124a7.18,7.18,0,0,1-1.349,1.484,6.862,6.862,0,0,1-1.529.944,7.349,7.349,0,0,1-1.574.472,8.329,8.329,0,0,1-1.416.135,9.852,9.852,0,0,1-1.978-.2,5.179,5.179,0,0,1-1.776-.719,4.193,4.193,0,0,1-1.281-1.439,4.68,4.68,0,0,1-.495-2.293,6.194,6.194,0,0,1,.382-2.136,4.359,4.359,0,0,1,1.192-1.731,5.757,5.757,0,0,1,2.113-1.169,10.493,10.493,0,0,1,3.125-.427,22.4,22.4,0,0,1,2.563.112c.742.067,1.394.157,1.911.247v-.877a6.632,6.632,0,0,0-.315-2.158,3.293,3.293,0,0,0-.922-1.371,3.488,3.488,0,0,0-1.506-.719,9.125,9.125,0,0,0-2.046-.2,6.916,6.916,0,0,0-3.08.562,9.3,9.3,0,0,0-1.754,1.079l-.809-1.057a8.712,8.712,0,0,1,2.091-1.3,8.307,8.307,0,0,1,3.53-.674,7.328,7.328,0,0,1,4.676,1.3c1.1.854,1.641,2.293,1.641,4.294v8.5a7.137,7.137,0,0,0,.045,1.034q.034.54.067.944l-1.439-.022Zm-.135-8a17.72,17.72,0,0,0-1.8-.292,23.323,23.323,0,0,0-2.743-.112,7.285,7.285,0,0,0-2.765.427,4.1,4.1,0,0,0-1.551,1.057,2.945,2.945,0,0,0-.674,1.349,7.566,7.566,0,0,0-.157,1.3,2.779,2.779,0,0,0,1.147,2.473,5.069,5.069,0,0,0,2.9.787,5.875,5.875,0,0,0,2.181-.4,6.28,6.28,0,0,0,1.8-1.079,5.02,5.02,0,0,0,1.214-1.551,3.908,3.908,0,0,0,.45-1.754v-2.2Z" transform="translate(-293.874 -134.819)" fill="#fff"/>
    <path id="Path_10472" data-name="Path 10472" d="M468.422,198.9h1.529v9.847a8.848,8.848,0,0,1,.764-1.079,5.136,5.136,0,0,1,1.146-1.034,6.028,6.028,0,0,1,1.619-.787,7.278,7.278,0,0,1,2.226-.315,7.114,7.114,0,0,1,3.125.629,6.193,6.193,0,0,1,2.2,1.731,7.184,7.184,0,0,1,1.281,2.63,11.824,11.824,0,0,1,.427,3.282,8.636,8.636,0,0,1-.674,3.507,7.144,7.144,0,0,1-1.844,2.563,7.988,7.988,0,0,1-2.765,1.574,10.568,10.568,0,0,1-3.417.54,16.441,16.441,0,0,1-3.215-.292,11.941,11.941,0,0,1-2.428-.7l.023-22.1Zm1.484,21.065c.27.09.742.225,1.416.382a12.848,12.848,0,0,0,2.765.225,8.394,8.394,0,0,0,2.765-.427,5.784,5.784,0,0,0,2.226-1.281,5.876,5.876,0,0,0,1.484-2.136,7.605,7.605,0,0,0,.517-2.968,11.041,11.041,0,0,0-.315-2.608,5.922,5.922,0,0,0-.967-2.158,4.9,4.9,0,0,0-1.708-1.461,5.638,5.638,0,0,0-2.585-.54,4.858,4.858,0,0,0-2.473.607,6.061,6.061,0,0,0-1.754,1.529,6.167,6.167,0,0,0-1.034,2.023,7.23,7.23,0,0,0-.337,2.091v6.722Z" transform="translate(-354.183 -111.873)" fill="#fff"/>
    <path id="Path_10473" data-name="Path 10473" d="M546.466,241.394a6.685,6.685,0,0,0,2.271,1.506,7.751,7.751,0,0,0,3.012.54,9.2,9.2,0,0,0,1.8-.18,5.958,5.958,0,0,0,1.506-.54,3.033,3.033,0,0,0,1.011-.9,2.234,2.234,0,0,0,.382-1.3,2.612,2.612,0,0,0-.337-1.394,2.485,2.485,0,0,0-1.012-.9,6.465,6.465,0,0,0-1.664-.607c-.674-.18-1.439-.36-2.293-.562a15.113,15.113,0,0,1-2-.562,5.6,5.6,0,0,1-1.551-.809,3.334,3.334,0,0,1-1.012-1.214,4.043,4.043,0,0,1-.382-1.821,3.514,3.514,0,0,1,.472-1.843,4.3,4.3,0,0,1,1.281-1.349,5.963,5.963,0,0,1,1.843-.809,8.593,8.593,0,0,1,2.158-.247,7.544,7.544,0,0,1,3.26.674,6.713,6.713,0,0,1,2.293,1.731l-1.057.944a6.578,6.578,0,0,0-1.888-1.439,5.669,5.669,0,0,0-2.563-.54,11.609,11.609,0,0,0-1.506.112,4.681,4.681,0,0,0-1.371.45,2.875,2.875,0,0,0-.989.877,2.689,2.689,0,0,0-.382,1.484,1.859,1.859,0,0,0,.427,1.259,3.286,3.286,0,0,0,1.1.854,6.769,6.769,0,0,0,1.574.562c.584.157,1.169.292,1.776.427.63.135,1.281.315,1.911.517a7.529,7.529,0,0,1,1.776.809,4.108,4.108,0,0,1,1.3,1.259,3.406,3.406,0,0,1,.495,1.911,3.752,3.752,0,0,1-.539,2.046,4.561,4.561,0,0,1-1.439,1.416,6.374,6.374,0,0,1-2,.832,9.6,9.6,0,0,1-2.248.27,9.768,9.768,0,0,1-3.754-.652,8,8,0,0,1-2.63-1.731Z" transform="translate(-413.949 -134.741)" fill="#fff"/>
    <g id="Group_9022" data-name="Group 9022" transform="translate(22.696 114.611)">
      <path id="Path_10474" data-name="Path 10474" d="M61.323,323.7h1.394a2.433,2.433,0,0,1,2.63,2.765c0,1.776-.922,2.81-2.608,2.81H61.3V323.7Zm1.326,4.991c1.3,0,1.956-.832,1.956-2.226s-.652-2.181-1.956-2.181h-.629v4.406Z" transform="translate(-61.3 -323.228)" fill="#fff"/>
      <path id="Path_10475" data-name="Path 10475" d="M87.6,329.712h.585l.067.742h.022a1.4,1.4,0,0,1,1.169-.854.947.947,0,0,1,.45.09l-.135.607a1.088,1.088,0,0,0-.4-.067c-.36,0-.764.247-1.034.944v2.653h-.7l-.022-4.114Z" transform="translate(-81.687 -327.801)" fill="#fff"/>
      <path id="Path_10476" data-name="Path 10476" d="M104.166,329.7c1.057,0,1.641.764,1.641,1.933a2.056,2.056,0,0,1-.022.382H103a1.372,1.372,0,0,0,1.371,1.461,2.068,2.068,0,0,0,1.034-.315l.247.45a2.544,2.544,0,0,1-1.371.427,1.976,1.976,0,0,1-1.978-2.158A2.007,2.007,0,0,1,104.166,329.7Zm1.034,1.866c0-.832-.382-1.3-1.012-1.3a1.285,1.285,0,0,0-1.192,1.3Z" transform="translate(-93.083 -327.879)" fill="#fff"/>
      <path id="Path_10477" data-name="Path 10477" d="M126.863,331.4c0-.54-.18-1.034-.854-1.034a2.289,2.289,0,0,0-1.236.45l-.27-.472a3.076,3.076,0,0,1,1.619-.54c1.012,0,1.439.674,1.439,1.686V334h-.585l-.067-.495h-.022a2.283,2.283,0,0,1-1.371.585,1.121,1.121,0,0,1-1.214-1.169C124.322,332.026,125.109,331.576,126.863,331.4Zm-1.124,2.158a1.638,1.638,0,0,0,1.124-.562v-1.147c-1.394.18-1.843.495-1.843,1.034A.629.629,0,0,0,125.739,333.554Z" transform="translate(-110.137 -327.956)" fill="#fff"/>
      <path id="Path_10478" data-name="Path 10478" d="M148,329.712h.585l.067.585h.022a1.845,1.845,0,0,1,1.281-.7,1.1,1.1,0,0,1,1.147.787,1.91,1.91,0,0,1,1.371-.787c.854,0,1.259.562,1.259,1.619v2.608h-.7v-2.518c0-.764-.247-1.1-.764-1.1a1.5,1.5,0,0,0-1.034.629v2.99h-.7v-2.518c0-.764-.247-1.1-.764-1.1a1.5,1.5,0,0,0-1.034.629v2.99H148v-4.114Z" transform="translate(-128.509 -327.801)" fill="#fff"/>
      <path id="Path_10479" data-name="Path 10479" d="M182.517,344.2a.51.51,0,0,1,.495.54.491.491,0,0,1-.495.517.528.528,0,0,1,0-1.057Z" transform="translate(-154.865 -339.119)" fill="#fff"/>
      <path id="Path_10480" data-name="Path 10480" d="M228.6,323.7h1.394a2.433,2.433,0,0,1,2.63,2.765c0,1.776-.922,2.81-2.608,2.81H228.6Zm1.349,4.991c1.3,0,1.956-.832,1.956-2.226s-.652-2.181-1.956-2.181h-.63v4.406Z" transform="translate(-190.989 -323.228)" fill="#fff"/>
      <path id="Path_10481" data-name="Path 10481" d="M255.442,329.7c1.057,0,1.641.764,1.641,1.933a2.059,2.059,0,0,1-.022.382h-2.788a1.372,1.372,0,0,0,1.371,1.461,2.068,2.068,0,0,0,1.034-.315l.247.45a2.465,2.465,0,0,1-1.349.427,2.188,2.188,0,0,1-.135-4.339Zm1.034,1.866c0-.832-.382-1.3-1.012-1.3a1.285,1.285,0,0,0-1.191,1.3Z" transform="translate(-210.367 -327.879)" fill="#fff"/>
      <path id="Path_10482" data-name="Path 10482" d="M277,321.6h.7v5.261c0,.225.09.315.2.315a.505.505,0,0,0,.157-.023l.09.517a.94.94,0,0,1-.4.067c-.517,0-.742-.337-.742-.944V321.6Z" transform="translate(-228.508 -321.6)" fill="#fff"/>
      <path id="Path_10483" data-name="Path 10483" d="M289.4,322.85a.473.473,0,1,1,.472.45A.456.456,0,0,1,289.4,322.85Zm.135,1.281h.7v4.137h-.7Z" transform="translate(-238.12 -322.22)" fill="#fff"/>
      <path id="Path_10484" data-name="Path 10484" d="M300,330.1h.719l.787,2.338c.112.4.247.832.382,1.214h.023c.112-.382.247-.809.382-1.214l.787-2.338h.674l-1.461,4.137h-.809Z" transform="translate(-246.337 -328.189)" fill="#fff"/>
      <path id="Path_10485" data-name="Path 10485" d="M324.042,329.7c1.057,0,1.641.764,1.641,1.933a2.059,2.059,0,0,1-.022.382h-2.788a1.372,1.372,0,0,0,1.371,1.461,2.068,2.068,0,0,0,1.034-.315l.247.45a2.465,2.465,0,0,1-1.349.427,2.188,2.188,0,0,1-.135-4.339Zm1.034,1.866c0-.832-.382-1.3-1.012-1.3a1.285,1.285,0,0,0-1.192,1.3Z" transform="translate(-263.545 -327.879)" fill="#fff"/>
      <path id="Path_10486" data-name="Path 10486" d="M345.6,329.712h.585l.067.742h.022a1.4,1.4,0,0,1,1.169-.854.947.947,0,0,1,.45.09l-.135.607a1.088,1.088,0,0,0-.4-.067c-.337,0-.764.247-1.034.944v2.653h-.7v-4.114Z" transform="translate(-281.686 -327.801)" fill="#fff"/>
      <path id="Path_10487" data-name="Path 10487" d="M359.717,344.2a.51.51,0,0,1,.495.54.491.491,0,0,1-.495.517.523.523,0,0,1-.517-.517A.543.543,0,0,1,359.717,344.2Z" transform="translate(-292.228 -339.119)" fill="#fff"/>
      <path id="Path_10488" data-name="Path 10488" d="M405.722,323.7h1.394a2.433,2.433,0,0,1,2.63,2.765c0,1.776-.922,2.81-2.608,2.81H405.7V323.7Zm1.349,4.991c1.3,0,1.956-.832,1.956-2.226s-.652-2.181-1.956-2.181h-.629v4.406Z" transform="translate(-328.274 -323.228)" fill="#fff"/>
      <path id="Path_10489" data-name="Path 10489" d="M431.6,322.85a.5.5,0,0,1,.989,0,.45.45,0,0,1-.495.45A.463.463,0,0,1,431.6,322.85Zm.112,1.281h.7v4.137h-.7Z" transform="translate(-348.352 -322.22)" fill="#fff"/>
      <path id="Path_10490" data-name="Path 10490" d="M443.059,332.9a1.842,1.842,0,0,0,1.214.495c.54,0,.809-.292.809-.652,0-.427-.495-.607-.944-.787-.584-.2-1.236-.495-1.236-1.191,0-.652.517-1.169,1.416-1.169a1.979,1.979,0,0,1,1.281.472l-.337.45a1.451,1.451,0,0,0-.944-.36c-.517,0-.764.27-.764.584,0,.382.45.54.922.719.585.225,1.259.472,1.259,1.236,0,.674-.54,1.236-1.506,1.236a2.486,2.486,0,0,1-1.529-.562Z" transform="translate(-356.956 -327.801)" fill="#fff"/>
      <path id="Path_10491" data-name="Path 10491" d="M464,329.712h.584l.068.742h.022a1.4,1.4,0,0,1,1.169-.854.947.947,0,0,1,.45.09l-.135.607a1.089,1.089,0,0,0-.4-.067c-.36,0-.764.247-1.057.944v2.653H464Z" transform="translate(-373.468 -327.801)" fill="#fff"/>
      <path id="Path_10492" data-name="Path 10492" d="M480.2,330.1h.7v2.518c0,.764.225,1.1.787,1.1.427,0,.719-.225,1.1-.7V330.1h.7v4.137H482.9l-.067-.652h-.023a1.733,1.733,0,0,1-1.349.742c-.877,0-1.259-.562-1.259-1.619V330.1Z" transform="translate(-386.026 -328.189)" fill="#fff"/>
      <path id="Path_10493" data-name="Path 10493" d="M505,334.186v1.394h-.7v-5.868h.585l.067.472h.023a2.163,2.163,0,0,1,1.326-.585c1.057,0,1.619.832,1.619,2.113,0,1.394-.832,2.226-1.776,2.226a1.939,1.939,0,0,1-1.147-.472Zm1.012-.832c.674,0,1.192-.629,1.192-1.641,0-.9-.315-1.529-1.079-1.529a1.732,1.732,0,0,0-1.1.562V332.9A1.477,1.477,0,0,0,506.008,333.354Z" transform="translate(-404.708 -327.801)" fill="#fff"/>
      <path id="Path_10494" data-name="Path 10494" d="M527.107,326.731H526.5v-.539l.652-.045.09-1.147h.585v1.147h1.1v.562h-1.1V329c0,.517.157.787.63.787a1.8,1.8,0,0,0,.472-.112l.135.539a2.887,2.887,0,0,1-.764.157c-.877,0-1.169-.562-1.169-1.371l-.022-2.271Z" transform="translate(-421.917 -324.235)" fill="#fff"/>
      <path id="Path_10495" data-name="Path 10495" d="M545.217,344.2a.51.51,0,0,1,.495.54.491.491,0,0,1-.495.517.523.523,0,0,1-.517-.517A.514.514,0,0,1,545.217,344.2Z" transform="translate(-436.025 -339.119)" fill="#fff"/>
    </g>
  </g>
</svg>
