<svg xmlns="http://www.w3.org/2000/svg" width="89.61" height="74.575" viewBox="0 0 89.61 74.575">
  <g id="Group_13873" data-name="Group 13873" transform="translate(0.8 0.8)">
    <g id="Group-105">
      <path id="Stroke-19" d="M29.961,64.859V73.05m28.661,0V64.859M39.489,73.05V64.859m9.551,0V73.05M88.262,40.528h-9.88m9.872,7.926h-9.88m-78.122,0H10.14m0-7.919H.252m9.872-15.844H.252M10.14,32.6H.252m88.01-7.919H78.374M78.366,32.6h9.9M39.474.075v8.2m-9.559,0V.075m19.1,8.2H26.54a17.674,17.674,0,0,0-11.617,4,12.134,12.134,0,0,0-4.791,9.6V51.242a12.123,12.123,0,0,0,4.791,9.6,17.633,17.633,0,0,0,11.617,4H61.951a17.53,17.53,0,0,0,11.586-4,12.1,12.1,0,0,0,4.83-9.6V21.873a12.086,12.086,0,0,0-4.83-9.6,17.535,17.535,0,0,0-11.586-4H58.576M49.016.075v8.2h9.552V.075" transform="translate(-0.252 -0.075)" fill="none" stroke="current" stroke-linecap="round" stroke-linejoin="round" stroke-width="1.6" fill-rule="evenodd"/>
      <path id="Stroke-21" d="M25.863,32.232a9.418,9.418,0,0,0-5.954,2.213,7.218,7.218,0,0,0-2.357,3.283m26.342,6.4H39.4m21.819-6.4a7.164,7.164,0,0,0-2.357-3.283,9.394,9.394,0,0,0-5.953-2.213m-13.485-14.8v2.9a6.9,6.9,0,0,0,2.663,5.2,9.313,9.313,0,0,0,5.5,2.182M34.863,44.125h4.484v3.052a3.9,3.9,0,0,1-1.531,3.105,5.576,5.576,0,0,1-3.719,1.3,5.654,5.654,0,0,1-3.743-1.3,4,4,0,0,1-1.531-3.105v-.04a11.029,11.029,0,0,1-2.518.272,9.536,9.536,0,0,1-6.482-2.236,6.773,6.773,0,0,1-2.3-7.468,7.6,7.6,0,0,1-1.706-1.088,5.418,5.418,0,0,1,0-8.609,7.306,7.306,0,0,1,2-1.211,6.786,6.786,0,0,1,2.036-8.222,9.574,9.574,0,0,1,6.383-2.228h.1a5.14,5.14,0,0,1,1.792-2.725,7.431,7.431,0,0,1,9.275,0,4.934,4.934,0,0,1,1.929,3.828,4.879,4.879,0,0,1,1.92-3.828,7.448,7.448,0,0,1,9.283,0,5.134,5.134,0,0,1,1.791,2.725h.108a9.553,9.553,0,0,1,6.375,2.228,6.763,6.763,0,0,1,2.648,5.372,6.538,6.538,0,0,1-.621,2.85,7.2,7.2,0,0,1,2.013,1.211,5.432,5.432,0,0,1,0,8.609,7.635,7.635,0,0,1-1.714,1.088,6.821,6.821,0,0,1-2.3,7.468,9.518,9.518,0,0,1-6.375,2.213,11.027,11.027,0,0,1-2.518-.272v.039a3.982,3.982,0,0,1-1.577,3.105,6.054,6.054,0,0,1-7.462,0,3.992,3.992,0,0,1-1.531-3.105V20.331A6.891,6.891,0,0,1,36.76,25.5a9.331,9.331,0,0,1-5.494,2.182" transform="translate(4.665 4.287)" fill="none" stroke="#f05b41" stroke-linecap="round" stroke-linejoin="round" stroke-width="1.6" fill-rule="evenodd"/>
      <path id="Stroke-23" d="M30.168,32.018a6.756,6.756,0,0,1-2.656,5.257A9.411,9.411,0,0,1,22,39.433m21.941-7.415A6.742,6.742,0,0,0,46.6,37.275a9.453,9.453,0,0,0,5.51,2.158m1.018-14.309a6.681,6.681,0,0,0-2.656-5.255,9.464,9.464,0,0,0-5.51-2.174M20.984,25.124a6.707,6.707,0,0,1,2.656-5.255A9.507,9.507,0,0,1,29.15,17.7" transform="translate(7.332 6.371)" fill="none" stroke="current" stroke-width="1.6" fill-rule="evenodd"/>
    </g>
  </g>
</svg>
