<svg xmlns="http://www.w3.org/2000/svg" width="124.745" height="120" viewBox="0 0 124.745 120">
  <g  transform="translate(-241.966 -822)">
    <!-- <rect  width="120" height="120" transform="translate(244 822)" fill="none"/> -->
    <g transform="translate(240.934 848.386)">
      <g  transform="translate(2.066 2.615)">
        <g  transform="translate(0 0)">
          <g  transform="translate(0 0)">
            <g >
              <path d="M81.428,19.13l6.686-3.865L104.5,38.369l-7.354,5.646Z" transform="translate(-0.954 -0.179)" fill="none" fill-rule="evenodd"/>
              <path d="M88.287,14.812l-6.9,4.345L97.522,43.7l7.016-4.967-17.569-26.3L103.658,0l19.961,30.151L106.254,41.268l-1.715-2.535" transform="translate(-0.954)" fill="none" stroke="current" stroke-width="1.5" fill-rule="evenodd"/>
              <path d="M80.649,19.328H41.54L25.527,42.94l-6.795-4.017L35.1,14.592l6.442,4.736" transform="translate(-0.219 -0.171)" fill="none" stroke="current" stroke-width="1.5" fill-rule="evenodd"/>
              <path d="M19.878,0,36.445,11.726,16.845,40.91,0,28.6Z" transform="translate(0 0)" fill="none" stroke="current" stroke-width="1.5" fill-rule="evenodd"/>
              <path d="M53.563,19.331l-9.675,6.683v8.319q.706,2.656,4.837,0T51.973,27.5h9.969Q62,33.554,68.1,34.333a32.245,32.245,0,0,0,10.048,0l12.181,7.541q3.574,4.291,0,7.238-1.6,1.256-4.927-.415-.952-.478-2.521-1.421-2.61-1.568-11.673-7.6" transform="translate(-0.514 -0.226)" fill="none" stroke="current" stroke-width="1.5" fill-rule="evenodd"/>
              <path d="M83.155,47.6q2.114,4.879-2.478,6.732-.761.592-5.425-2.187t-8.164-5.035" transform="translate(-0.786 -0.552)" fill="none" stroke="#f26c55" stroke-width="1.5" fill-rule="evenodd"/>
              <path d="M75.2,52.206q1.138,4.81-1.91,6.046t-5.067-.65l-5.393-3.621" transform="translate(-0.736 -0.612)" fill="none" stroke="#f26c55" stroke-width="1.5" fill-rule="evenodd"/>
              <path d="M66.985,56.865q.63,5.071-2.887,5.071a8.849,8.849,0,0,1-5.131-1.171" transform="translate(-0.691 -0.666)" fill="none" stroke="#f26c55" stroke-width="1.5" fill-rule="evenodd"/>
              <circle cx="2.798" cy="2.798" r="2.798" transform="translate(52.063 55.927)" fill="none" stroke="#f26c55" stroke-width="1.5"/>
              <circle cx="2.798" cy="2.798" r="2.798" transform="translate(31.831 43.504)" fill="none" stroke="#f26c55" stroke-width="1.5"/>
              <rect width="5.595" height="11.629" rx="2.798" transform="matrix(0.829, 0.559, -0.559, 0.829, 50.76, 45.525)" fill="none" stroke="#f26c55" stroke-width="1.5"/>
              <rect width="5.595" height="9.5" rx="2.798" transform="matrix(0.829, 0.559, -0.559, 0.829, 42.889, 43.279)" fill="none" stroke="#f26c55" stroke-width="1.5"/>
              <path d="M29.287,38.141a5.018,5.018,0,0,1,3.85,5.075" transform="translate(-0.343 0.553)" fill="none" stroke="#f26c55" stroke-width="1.5" fill-rule="evenodd"/>
              <path d="M93.491,38.141q-3.919.614-2.613,3.953" transform="translate(-1.061 -0.447)" fill="none" stroke="current" stroke-width="1.5" fill-rule="evenodd"/>
            </g>
            <g  transform="translate(14.063 31.455)">
              <circle  data-name="Oval" cx="1.023" cy="1.023" r="1.023" transform="translate(0 0)" fill="none" stroke="current" stroke-width="1.5"/>
              <circle  cx="1.023" cy="1.023" r="1.023" transform="translate(91.932 0)" fill="none" stroke="current" stroke-width="1.5"/>
            </g>
          </g>
        </g>
      </g>
    </g>
  </g>
</svg>
