<svg  xmlns="http://www.w3.org/2000/svg" width="102" height="93" viewBox="0 0 102 93">
  <g >
    <g  transform="translate(75 7)" fill="#fff" stroke="#1171c4" stroke-width="1.4">
      <circle cx="11" cy="11" r="11" stroke="none"/>
      <circle cx="11" cy="11" r="10.3" fill="none"/>
    </g>
    <g  transform="translate(81 42)" fill="#fff" stroke="#1171c4" stroke-width="1.4">
      <ellipse cx="10.5" cy="10" rx="10.5" ry="10" stroke="none"/>
      <ellipse cx="10.5" cy="10" rx="9.8" ry="9.3" fill="none"/>
    </g>
    <g  transform="translate(43.999 72)" fill="#fff" stroke="#1171c4" stroke-width="1.4">
      <ellipse cx="11" cy="10.5" rx="11" ry="10.5" stroke="none"/>
      <ellipse cx="11" cy="10.5" rx="10.3" ry="9.8" fill="none"/>
    </g>
    <g  transform="translate(0 32)" fill="#fff" stroke="#1171c4" stroke-width="1.4">
      <ellipse cx="11" cy="10.5" rx="11" ry="10.5" stroke="none"/>
      <ellipse cx="11" cy="10.5" rx="10.3" ry="9.8" fill="none"/>
    </g>
    <g  transform="translate(25)" fill="#fff" stroke="#1171c4" stroke-width="1.4">
      <ellipse cx="10" cy="10.5" rx="10" ry="10.5" stroke="none"/>
      <ellipse cx="10" cy="10.5" rx="9.3" ry="9.8" fill="none"/>
    </g>
    <path  d="M-2949.513,14353.468l30.117,4.661" transform="translate(2994.509 -14339.984)" fill="none" stroke="#1171c4" stroke-width="1.4"/>
    <path  d="M-2623.937,14471l3.284,13.221" transform="translate(2711.131 -14442.583)" fill="none" stroke="#1171c4" stroke-width="1.4"/>
    <path  d="M-2804.7,14720.875l19.707-17.59" transform="translate(2868.47 -14644.936)" fill="none" stroke="#1171c4" stroke-width="1.4"/>
    <path  d="M-3143.558,14398.277l-10.094,17.254" transform="translate(3172.622 -14379.796)" fill="none" stroke="#1171c4" stroke-width="1.4"/>
    <path  d="M-3153.653,14640.5l28.588,25.451" transform="translate(3172.107 -14590.105)" fill="none" stroke="#1171c4" stroke-width="1.4"/>
    <path  d="M-2989.028,14410l8.067,12.043" transform="translate(3028.589 -14390.227)" fill="none" stroke="#1171c4" stroke-width="1.4"/>
    <path  d="M-2778.26,14451.7l10.03-9.416" transform="translate(2845.563 -14417.714)" fill="none" stroke="#1171c4" stroke-width="1.4"/>
    <path  d="M-2872,14720.131v10.8" transform="translate(2927.234 -14659.356)" fill="none" stroke="#1171c4" stroke-width="1.4"/>
    <g transform="translate(41.673 31.098)">
      <g  transform="translate(0 0)">
        <g  transform="translate(0 0)">
          <path d="M198.8,139.371a13.883,13.883,0,1,0,13.883,13.883A13.9,13.9,0,0,0,198.8,139.371Zm-.813,6.815a18.982,18.982,0,0,1-3.633-.51c.187-.443.39-.868.608-1.271a7.025,7.025,0,0,1,3.024-3.233Zm0,1.628v4.627h-5.081a20.444,20.444,0,0,1,.888-5.23A20.6,20.6,0,0,0,197.987,147.814Zm0,6.254V158.7a20.6,20.6,0,0,0-4.193.6,20.444,20.444,0,0,1-.888-5.23Zm0,6.255v5.014a7.025,7.025,0,0,1-3.024-3.233c-.219-.4-.421-.828-.608-1.271A18.98,18.98,0,0,1,197.987,160.323Zm1.627,0a18.982,18.982,0,0,1,3.633.51c-.187.443-.39.868-.608,1.271a7.025,7.025,0,0,1-3.024,3.233Zm0-1.628v-4.627H204.7a20.445,20.445,0,0,1-.888,5.23A20.6,20.6,0,0,0,199.614,158.7Zm0-6.254v-4.627a20.6,20.6,0,0,0,4.193-.6,20.445,20.445,0,0,1,.888,5.23Zm0-6.255v-5.014a7.025,7.025,0,0,1,3.024,3.233c.219.4.421.828.608,1.271A18.982,18.982,0,0,1,199.614,146.186Zm4.454-2.557a12.353,12.353,0,0,0-1.316-1.977,12.272,12.272,0,0,1,4.339,2.584,15.372,15.372,0,0,1-2.27.982,16.477,16.477,0,0,0-.753-1.589Zm-10.535,0a16.48,16.48,0,0,0-.753,1.589,15.4,15.4,0,0,1-2.27-.982,12.272,12.272,0,0,1,4.339-2.584A12.356,12.356,0,0,0,193.533,143.629Zm-1.3,3.118a21.786,21.786,0,0,0-.952,5.694h-4.706a12.2,12.2,0,0,1,2.782-6.987A16.734,16.734,0,0,0,192.229,146.747Zm-.952,7.321a21.784,21.784,0,0,0,.952,5.694,16.732,16.732,0,0,0-2.876,1.293,12.2,12.2,0,0,1-2.782-6.987Zm1.5,7.223a16.48,16.48,0,0,0,.753,1.589,12.366,12.366,0,0,0,1.316,1.977,12.269,12.269,0,0,1-4.339-2.584A15.369,15.369,0,0,1,192.78,161.291Zm11.289,1.589a16.476,16.476,0,0,0,.753-1.589,15.39,15.39,0,0,1,2.27.982,12.272,12.272,0,0,1-4.339,2.584,12.356,12.356,0,0,0,1.316-1.977Zm1.3-3.118a21.786,21.786,0,0,0,.952-5.694h4.706a12.2,12.2,0,0,1-2.782,6.987,16.733,16.733,0,0,0-2.876-1.293Zm.952-7.321a21.785,21.785,0,0,0-.952-5.694,16.735,16.735,0,0,0,2.876-1.293,12.2,12.2,0,0,1,2.782,6.987Z" transform="translate(-184.917 -139.371)" fill="#f05b41" stroke="#fff" stroke-width="1"/>
        </g>
      </g>
    </g>
    <g  transform="translate(29.064 5.468)">
      <path  d="M10.856,3.133a.5.5,0,0,1-.353-.146,6.857,6.857,0,0,0-9.649,0,.5.5,0,0,1-.706-.712,7.859,7.859,0,0,1,11.061,0,.5.5,0,0,1-.353.858Z" transform="translate(0 0)" fill="#1375ca" stroke="#fff" stroke-width="0.4"/>
      <path  data-name="Path" d="M14.4,12.454a.5.5,0,0,1-.353-.146,4.281,4.281,0,0,0-6.045,0,.5.5,0,0,1-.709,0,.505.505,0,0,1,0-.712,5.281,5.281,0,0,1,7.458,0,.5.5,0,0,1-.353.86Z" transform="translate(-5.35 -7.521)" fill="#1375ca" stroke="#fff" stroke-width="0.4"/>
      <path  data-name="Path" d="M17.951,21.751A.5.5,0,0,1,17.6,21.6a1.775,1.775,0,0,0-2.436,0,.5.5,0,0,1-.709,0,.5.5,0,0,1,0-.7,2.74,2.74,0,0,1,3.86,0,.5.5,0,0,1-.356.85Z" transform="translate(-10.699 -15.041)" fill="#1375ca" stroke="#fff" stroke-width="0.4"/>
      <ellipse   cx="1" cy="0.5" rx="1" ry="0.5" transform="translate(4.936 7.531)" fill="#1375ca"/>
    </g>
    <g  transform="translate(81.114 11.996)">
      <path d="M.95,3.9a.241.241,0,0,0,.171-.412,2.179,2.179,0,0,1,0-3.081A.241.241,0,1,0,.78.071a2.661,2.661,0,0,0,0,3.764A.241.241,0,0,0,.95,3.9Z" transform="translate(0 0)" fill="#1171c4"/>
      <path d="M6.161,4.981a.241.241,0,0,0,.171-.412,1.521,1.521,0,0,1,0-2.152.241.241,0,0,0-.341-.341,2.006,2.006,0,0,0,0,2.834A.24.24,0,0,0,6.161,4.981Z" transform="translate(-4.152 -1.541)" fill="#1171c4"/>
      <path d="M11.369,6.056a.241.241,0,0,0,.171-.412.865.865,0,0,1,0-1.222.241.241,0,1,0-.341-.341,1.348,1.348,0,0,0,0,1.9A.241.241,0,0,0,11.369,6.056Z" transform="translate(-8.3 -3.081)" fill="#1171c4"/>
      <path d="M6.985,6.081a.987.987,0,1,0-.667,0L2.677,15.168a.241.241,0,0,0,.448.179l.623-1.556H6.3a.241.241,0,1,0,0-.482H4.64L8.553,11.29l.809,2.019H8.238a.241.241,0,0,0,0,.482H9.556l.623,1.556a.241.241,0,1,0,.448-.18ZM5.832,8.593a.239.239,0,0,0,.053.006h.921L5.247,10.051Zm.191-.476.629-1.57.629,1.57Zm.125-2.965a.5.5,0,1,1,.5.5A.505.505,0,0,1,6.147,5.151ZM4.034,13.079l.755-1.884h2.9Zm1.211-2.366,2.24-2.087.837,2.087Z" transform="translate(-2.043 -3.199)" fill="#1171c4" stroke="#1171c4" stroke-width="0.2"/>
      <path d="M34.7,3.834a.241.241,0,0,0,.341,0,2.661,2.661,0,0,0,0-3.764A.241.241,0,0,0,34.7.412a2.179,2.179,0,0,1,0,3.081.241.241,0,0,0,0,.341Z" transform="translate(-26.601 0)" fill="#1171c4"/>
      <path d="M30.128,4.91a.241.241,0,0,0,.341,0,2.006,2.006,0,0,0,0-2.834.241.241,0,1,0-.341.341,1.521,1.521,0,0,1,0,2.152.241.241,0,0,0,0,.341Z" transform="translate(-23.09 -1.541)" fill="#1171c4"/>
      <path d="M25.558,5.986a.241.241,0,0,0,.341,0,1.348,1.348,0,0,0,0-1.9.241.241,0,0,0-.341.341.865.865,0,0,1,0,1.222.241.241,0,0,0,0,.341Z" transform="translate(-19.58 -3.081)" fill="#1171c4"/>
      <path d="M21.975,43.765a.241.241,0,1,0-.089.293.243.243,0,0,0,.089-.293Z" transform="translate(-16.525 -33.507)" fill="#1171c4"/>
    </g>
    <path  d="M10.117,41.313h-1.6a.638.638,0,1,1,0-1.275h1.6a.744.744,0,1,0,0-1.488h-1.6a.639.639,0,0,1-.64-.638V35.149a.639.639,0,0,1,.64-.638H11.5a.638.638,0,1,1,0,1.275H9.157v1.488h.96a2.019,2.019,0,1,1,0,4.038Z" transform="translate(79.557 14.388)" fill="#1171c4" stroke="#fff" stroke-width="0.5"/>
    <path  d="M27.568,41.313H25.434a1.492,1.492,0,0,1-1.494-1.488V36a1.492,1.492,0,0,1,1.494-1.488h2.134a.638.638,0,1,1,0,1.275H25.434a.213.213,0,0,0-.213.213v3.826a.213.213,0,0,0,.213.213h1.494V38.762h-.64a.638.638,0,1,1,0-1.275h1.28a.639.639,0,0,1,.64.638v2.55A.639.639,0,0,1,27.568,41.313Z" transform="translate(68.66 14.388)" fill="#1171c4" stroke="#fff" stroke-width="0.5"/>
    <g  transform="translate(47.906 77.509)">
      <g  transform="translate(0 0)">
        <line   y2="5.865" transform="translate(7.779 0.993)" fill="none" stroke="#1171c4" stroke-width="1"/>
        <path   d="M48.525,30.374l3.62-4.113h2.168" transform="translate(-40.552 -22.595)" fill="none" stroke="#1171c4" stroke-width="1" fill-rule="evenodd"/>
        <path  d="M11.563,27.961h2.083l3.082,2.933" transform="translate(-10.476 -23.979)" fill="none" stroke="#1171c4" stroke-width="1" fill-rule="evenodd"/>
        <ellipse  cx="0.544" cy="0.544" rx="0.544" ry="0.544" transform="translate(7.235)" fill="none" stroke="#1171c4" stroke-width="0.5"/>
        <ellipse  cx="0.544" cy="0.544" rx="0.544" ry="0.544" transform="translate(13.613 3.122)" fill="none" stroke="#1171c4" stroke-width="0.5"/>
        <ellipse  cx="0.544" cy="0.544" rx="0.544" ry="0.544" transform="translate(0 3.382)" fill="none" stroke="#1171c4" stroke-width="0.5"/>
      </g>
      <path  d="M23.7,28.911h6.5q2.038-.3,1.821-1.7t-2.173-1.555q-.83-1.443-1.975-.939c-.324-.258-.215-.545-.368-.7-.717-.737-.286-.448-1.7-.817-.435-.113-.839.433-1.079.623a1.807,1.807,0,0,0-.405,2.017c.249.513-1.76-.36-1.563,1.7a1.852,1.852,0,0,0,.39,1.107.83.83,0,0,0,.563.313" transform="translate(-19.487 -19.867)" fill="#fff" stroke="#fff" stroke-width="0.85" fill-rule="evenodd"/>
      <path  data-name="Shape" d="M29.2,25.164a1.94,1.94,0,0,0-.23.014,1.609,1.609,0,0,0-1.534-1.137,1.578,1.578,0,0,0-.516.086A2.083,2.083,0,0,0,22.941,25a2.055,2.055,0,0,0,.062.5,1.765,1.765,0,0,0,.258,3.51H29.2a1.926,1.926,0,0,0,0-3.852Zm0,3.531H23.262a1.443,1.443,0,0,1-.043-2.886.161.161,0,0,0,.147-.214,1.763,1.763,0,0,1,3.313-1.2.16.16,0,0,0,.217.09,1.273,1.273,0,0,1,.536-.119,1.286,1.286,0,0,1,1.258,1.029.16.16,0,0,0,.189.126,1.626,1.626,0,0,1,.318-.032,1.6,1.6,0,0,1,0,3.21Z" transform="translate(-18.566 -19.874)" fill="current" stroke="#1375ca" stroke-width="0.5"/>
    </g>
  </g>
  <g  transform="translate(5.261 36.715)">
    <line  y2="3.969" transform="translate(3.756 2.076)" fill="none" stroke="#1375ca" stroke-width="0.6"/>
    <line  y2="2.282" transform="translate(6.338 2.561)" fill="none" stroke="#1375ca" stroke-width="0.6"/>
    <line  y2="4.563" transform="translate(8.584 0.905)" fill="none" stroke="#1375ca" stroke-width="0.6"/>
    <path  d="M52.716,20.325v1.767l.6.944-.019,2.71" transform="translate(-42.872 -16.623)" fill="none" stroke="#1375ca" stroke-width="0.6" fill-rule="evenodd"/>
    <path  d="M9.716,18.963v1.4l-.354.791v1.428" transform="translate(-7.613 -15.515)" fill="none" stroke="#1375ca" stroke-width="0.6" fill-rule="evenodd"/>
    <g  transform="translate(0 4.676)">
      <path  d="M9.7,3.409a2.993,2.993,0,0,0,.019-.323,3.069,3.069,0,0,0-5.557-1.8A2.213,2.213,0,0,0,1.37,3.264a1.534,1.534,0,0,0,.164,3.06H3.59a2.046,2.046,0,0,0,2.72.3,2.046,2.046,0,0,0,2.72-.3h.01A1.531,1.531,0,0,0,9.7,3.409ZM9.039,5.986H8.871A1.586,1.586,0,0,1,7.5,6.669,1.746,1.746,0,0,1,6.308,6.19a1.722,1.722,0,0,1-1.195.479,1.758,1.758,0,0,1-1.367-.683H1.534a1.195,1.195,0,1,1,0-2.389H1.7V3.426A1.877,1.877,0,0,1,3.58,1.551a2.188,2.188,0,0,1,.722.142A2.854,2.854,0,0,1,6.65.358,2.731,2.731,0,0,1,9.378,3.087a2.828,2.828,0,0,1-.054.539,1.32,1.32,0,0,1,.905,1.166A1.191,1.191,0,0,1,9.039,5.986Z" transform="translate(0 -0.017)" fill="#1375ca" stroke="#1375ca" stroke-width="0.4"/>
    </g>
    <rect  width="0.812" height="0.812" transform="translate(1.696 2.664)" fill="#fff" stroke="#1375ca" stroke-width="0.4"/>
    <rect  width="0.812" height="0.812" transform="translate(1.696 2.664)" fill="none" stroke="#1375ca" stroke-width="0.4"/>
    <rect  width="0.812" height="0.812" transform="translate(3.341 1.166)" fill="none" stroke="#1375ca" stroke-width="0.4"/>
    <rect  width="0.812" height="0.812" transform="translate(5.921 1.665)" fill="none" stroke="#1375ca" stroke-width="0.4"/>
    <rect  width="0.812" height="0.812" transform="translate(8.169 0)" fill="none" stroke="#1375ca" stroke-width="0.4"/>
    <rect  width="0.812" height="0.812" transform="translate(9.48 2.789)" fill="none" stroke="#1375ca" stroke-width="0.4"/>
  </g>
</svg>
