<svg xmlns="http://www.w3.org/2000/svg" width="91.353" height="91.356" viewBox="0 0 91.353 91.356">
  <g id="Group_13863" data-name="Group 13863" transform="matrix(0.996, -0.087, 0.087, 0.996, 1.003, 8.097)">
    <g id="Group-109" transform="translate(0 0)">
      <path id="Stroke-7" d="M33.884,60.8l-6.129-6.115Zm-21.251,9.07.171.187a4.668,4.668,0,0,1,.218,5.849l-.389.418a4.543,4.543,0,0,1-3.267,1.355,4.4,4.4,0,0,1-3.018-1.153l-.235-.2a4.591,4.591,0,0,1,0-6.5l.451-.4a4.21,4.21,0,0,1,2.8-.935,4.377,4.377,0,0,1,3.267,1.339L27.755,54.687l-6.129-6.1Zm35.781-9.023L46.672,62.59a7.488,7.488,0,0,1-5.555,2.3,7.607,7.607,0,0,1-5.583-2.3l-1.727-1.741-6.223,6.223v6.363a4.573,4.573,0,1,1-4.2,2.194,4.572,4.572,0,0,1,4.2-2.194Zm6.223-6.114-6.223,6.114,6.223,6.223v6.363a4.527,4.527,0,1,1-3.267,1.307,4.464,4.464,0,0,1,3.267-1.307Zm6.083-6.147-6.1,6.1L69.743,69.825a4.665,4.665,0,0,1,6.067-.4l.451.4a4.666,4.666,0,0,1,0,6.5l-.233.2a4.556,4.556,0,0,1-6.223-.2l-.4-.418a4.666,4.666,0,0,1,.218-5.849l.187-.187ZM48.492,21.753l6.223,6.1ZM60.751,33.966l1.742,1.758a7.887,7.887,0,0,1,0,11.108L60.72,48.588l6.223,6.147H73.29A4.556,4.556,0,1,1,74.626,58a4.435,4.435,0,0,1-1.336-3.267Zm9.007-21.189L54.637,27.868l6.114,6.114,6.223-6.223h6.347a4.574,4.574,0,1,1,1.338,3.251,4.329,4.329,0,0,1-1.338-3.251Zm6.518-6.52a4.417,4.417,0,0,0-3.269-1.321,4.544,4.544,0,0,0-3.25,1.321L69.37,6.7a4.759,4.759,0,0,0,.389,6.083l.2.171a4.671,4.671,0,0,0,5.882.218l.4-.389a4.542,4.542,0,0,0,.188-6.223ZM9.149,54.719A4.574,4.574,0,1,1,1.37,51.468a4.426,4.426,0,0,1,3.267-1.324,4.485,4.485,0,0,1,3.251,1.324,4.37,4.37,0,0,1,1.336,3.251h6.333l6.223-6.145-1.82-1.758a7.856,7.856,0,0,1,0-11.108L21.7,33.951Zm0-26.929a4.543,4.543,0,1,1-1.322-3.22,4.543,4.543,0,0,1,1.322,3.22h6.409l6.223,6.223L27.91,27.9Zm24.782-6.1,1.758-1.758a7.651,7.651,0,0,1,5.585-2.285,7.53,7.53,0,0,1,5.554,2.285L48.6,21.69l6.223-6.143V9.215a4.571,4.571,0,1,1,4.543-4.558,4.449,4.449,0,0,1-1.338,3.236,4.574,4.574,0,0,1-3.237,1.338ZM12.664,12.716l-.218.171A4.589,4.589,0,0,1,6.6,13.1l-.436-.389A4.526,4.526,0,0,1,5.99,6.493l.171-.235a4.668,4.668,0,0,1,6.534,0l.373.422a4.667,4.667,0,0,1-.373,6.083L27.832,27.851l6.114-6.112-6.223-6.147V9.262a4.5,4.5,0,0,1-3.269-1.338,4.59,4.59,0,1,1,6.5-6.472,4.589,4.589,0,0,1-3.236,7.778Z" fill="none" stroke="current" stroke-linecap="round" stroke-linejoin="round" stroke-width="1.6" fill-rule="evenodd"/>
      <path id="Stroke-9" d="M1.386,1.339A4.355,4.355,0,0,1,4.668,0a4.454,4.454,0,0,1,3.3,1.336A4.58,4.58,0,0,1,9.336,4.683a4.456,4.456,0,0,1-1.305,3.3A4.707,4.707,0,0,1,0,4.683,4.469,4.469,0,0,1,1.386,1.339Z" transform="translate(36.527 37.403)" fill="none" stroke="#f05b41" stroke-linecap="round" stroke-linejoin="round" stroke-width="1.6" fill-rule="evenodd"/>
      <path id="Stroke-11" d="M20.224,6.238V18.684L10.112,24.891,0,18.684V6.223L10.112,0Z" transform="translate(31.084 29.61)" fill="none" stroke="#f05b41" stroke-width="1.6" fill-rule="evenodd"/>
    </g>
  </g>
</svg>
