<svg xmlns="http://www.w3.org/2000/svg" width="86.403" height="91.668" viewBox="0 0 86.403 91.668">
  <g id="Group-106" transform="translate(0.8 0.8)">
    <path id="Stroke-13" d="M28.167,46.723V41.263l7.52-4.436,7.521,4.436v8.858l-.888.532M18.449,10.4a21.091,21.091,0,0,1,3.357-4.477,19.107,19.107,0,0,1,27.405,0,20.444,20.444,0,0,1,3.357,4.5M26.242,14.745a11.494,11.494,0,0,1,1.829-2.457,10.388,10.388,0,0,1,14.863,0,11.6,11.6,0,0,1,1.842,2.457" transform="translate(6.158 -0.137)" fill="none" stroke="current" stroke-width="1.6" fill-rule="evenodd"/>
    <path id="Stroke-15" d="M29.8,56.307a10.88,10.88,0,0,1-1.2-1.024A8.412,8.412,0,0,1,26.091,49.2v-.833H15.173V57.44a3.712,3.712,0,1,1-2.62,1.092,3.492,3.492,0,0,1,2.62-1.092Zm29.671-7.863H70.393v9.077a3.711,3.711,0,1,1-2.62,1.09,3.5,3.5,0,0,1,2.62-1.09ZM70.393,24.67v9.077H59.475Zm7.356,16.378a3.685,3.685,0,0,0,7.1,1.365A3.751,3.751,0,0,0,83.482,37.9a3.657,3.657,0,0,0-4.654.464,3.573,3.573,0,0,0-1.078,2.648ZM73.014,23.523a3.751,3.751,0,0,0,.478-4.721,3.713,3.713,0,0,0-4.518-1.365,3.752,3.752,0,0,0-2.225,4.19,3.714,3.714,0,0,0,3.644,3.016,3.553,3.553,0,0,0,2.62-1.065ZM58.738,52.731a8.618,8.618,0,0,0,.71-3.508V32.846A8.585,8.585,0,0,0,50.9,24.234H34.676a8.6,8.6,0,0,0-8.557,8.612v.833ZM7.871,41.062H26.119v-7.37H15.2V24.615Zm-7.411,0a3.726,3.726,0,0,0,2.975,3.629A3.671,3.671,0,0,0,7.53,42.467a3.736,3.736,0,0,0-1.365-4.516A3.7,3.7,0,0,0,.419,41.062ZM17.807,23.552a3.785,3.785,0,0,0,.479-4.737,3.715,3.715,0,0,0-4.519-1.365,3.755,3.755,0,0,0-2.225,4.191,3.7,3.7,0,0,0,3.644,3.016A3.513,3.513,0,0,0,17.807,23.552Z" transform="translate(-0.419 6.069)" fill="none" stroke="current" stroke-linecap="round" stroke-linejoin="round" stroke-width="1.6" fill-rule="evenodd"/>
    <path id="Stroke-17" d="M37.485,45.853a2.274,2.274,0,0,0-1.733.751,2.543,2.543,0,0,0-.7,1.445V40.066a2.825,2.825,0,1,0-5.65,0V56.54l-2.347-2.266a2.944,2.944,0,0,0-2.088-.86,2.437,2.437,0,0,0-1.911.86,2.735,2.735,0,0,0-.655,2.1,3.23,3.23,0,0,0,1.01,2.087l.805.779A15.655,15.655,0,0,1,28.2,66.815c.846,3.345,2.211,5.338,4.094,6.02v3.835H46.67V72.779q3.1-1.91,2.975-8.189V52.307a2.5,2.5,0,0,0-.723-1.815,2.278,2.278,0,0,0-1.733-.749,2.249,2.249,0,0,0-1.718.749,2.54,2.54,0,0,0-.7,1.462v-1.61a2.565,2.565,0,0,0-1.5-2.334,2.344,2.344,0,0,0-2.633.519,2.528,2.528,0,0,0-.7,1.447v-1.57A2.525,2.525,0,0,0,37.5,45.838Z" transform="translate(7.595 13.398)" fill="none" stroke="#f05b41" stroke-linecap="round" stroke-linejoin="round" stroke-width="1.6" fill-rule="evenodd"/>
  </g>
</svg>
