<svg xmlns="http://www.w3.org/2000/svg" xmlns:xlink="http://www.w3.org/1999/xlink" width="120" height="120" viewBox="0 0 120 120">
  <defs>
    <clipPath id="clip-path">
      <path d="M0,50.551H107.551V-57H0Z" transform="translate(0 57)" fill="#fff" stroke="#161616" stroke-width="1"/>
    </clipPath>
  </defs>
  <g  transform="translate(-584 -222)">
    <!-- <rect id="Rectangle_1922" data-name="Rectangle 1922" width="120" height="120" transform="translate(584 222)" fill="none"/> -->
    <g  transform="translate(590 285)">
      <g  transform="translate(0 -57)" clip-path="url(#clip-path)">
        <path  d="M65.3-2.357a37.779,37.779,0,0,0-6.77,20.145H27a36.444,36.444,0,0,0-6.6-19.9,27.191,27.191,0,0,1-5.031-16.565,27.505,27.505,0,0,1,27.4-26.675h.349A27.4,27.4,0,0,1,70.166-17.6,27.4,27.4,0,0,1,65.3-2.359ZM52.63,38.528a1.365,1.365,0,0,1-1.363,1.364H34.26A1.365,1.365,0,0,1,32.9,38.528V33.8H52.629Zm5.868-14.2H27.028v-3.6H58.5ZM53.562,30.86H31.967l-4.246-3.591H57.808ZM43.156-48.291A30.469,30.469,0,0,0,12.43-18.757,30.1,30.1,0,0,0,18-.408a33.726,33.726,0,0,1,6.081,19.669v8.1a1.469,1.469,0,0,0,.521,1.123l5.347,4.523v5.516a4.309,4.309,0,0,0,4.306,4.3h17a4.308,4.308,0,0,0,4.3-4.3V33.007l5.347-4.523a1.469,1.469,0,0,0,.521-1.122v-8.1A34.841,34.841,0,0,1,67.713-.681,30.346,30.346,0,0,0,60.026-42.9a30.344,30.344,0,0,0-16.87-5.389" transform="translate(11.012 64.723)" fill="#000" stroke="#fff" stroke-width="0"/>
        <path  d="M55.512-19.532H53.028a1.47,1.47,0,0,0-1.45,1.228,13.7,13.7,0,0,1-2.387,5.714,1.469,1.469,0,0,0,.154,1.9l1.771,1.765L49.7-7.5,47.919-9.279a1.47,1.47,0,0,0-1.895-.157A13.709,13.709,0,0,1,40.31-7.075a1.47,1.47,0,0,0-1.225,1.454V-3.1H37.069V-5.621a1.47,1.47,0,0,0-1.228-1.452,13.707,13.707,0,0,1-5.714-2.361,1.471,1.471,0,0,0-1.895.157L26.456-7.5l-1.42-1.42,1.774-1.767a1.47,1.47,0,0,0,.154-1.9A13.7,13.7,0,0,1,24.576-18.3a1.469,1.469,0,0,0-1.45-1.228H20.642v-2.008H23.11a1.47,1.47,0,0,0,1.452-1.236,13.707,13.707,0,0,1,2.368-5.75,1.471,1.471,0,0,0-.157-1.895L25.038-32.15l1.42-1.42,1.728,1.728a1.471,1.471,0,0,0,1.9.154,13.674,13.674,0,0,1,5.755-2.393,1.471,1.471,0,0,0,1.228-1.457v-2.437h2.017v2.437a1.47,1.47,0,0,0,1.233,1.451,13.676,13.676,0,0,1,5.751,2.4,1.469,1.469,0,0,0,1.9-.154L49.7-33.573l1.42,1.42-1.734,1.734a1.47,1.47,0,0,0-.157,1.895,13.707,13.707,0,0,1,2.368,5.75,1.47,1.47,0,0,0,1.452,1.236h2.468Zm-1.265-4.949a16.722,16.722,0,0,0-1.94-4.705l1.927-1.928a1.47,1.47,0,0,0,0-2.078h0l-3.5-3.5a1.469,1.469,0,0,0-2.078,0h0l-1.917,1.917a16.712,16.712,0,0,0-4.712-1.96v-2.7a1.47,1.47,0,0,0-1.47-1.47H35.6a1.47,1.47,0,0,0-1.47,1.47v2.7a16.709,16.709,0,0,0-4.716,1.96L27.5-36.695a1.47,1.47,0,0,0-2.078,0h0l-3.5,3.5a1.469,1.469,0,0,0,0,2.078h0l1.928,1.928a16.72,16.72,0,0,0-1.94,4.705H19.172a1.47,1.47,0,0,0-1.47,1.47v4.949a1.47,1.47,0,0,0,1.47,1.47H21.93a16.7,16.7,0,0,0,1.949,4.674l-1.96,1.96a1.469,1.469,0,0,0,0,2.078h0l3.5,3.5a1.512,1.512,0,0,0,2.08,0L29.47-6.349a16.7,16.7,0,0,0,4.658,1.928v2.79A1.47,1.47,0,0,0,35.6-.161h4.95a1.47,1.47,0,0,0,1.47-1.47v-2.79a16.7,16.7,0,0,0,4.663-1.928l1.971,1.971a1.469,1.469,0,0,0,2.078,0h0l3.5-3.5a1.469,1.469,0,0,0,0-2.078h0l-1.954-1.96a16.683,16.683,0,0,0,1.949-4.673h2.756a1.47,1.47,0,0,0,1.47-1.47V-23.01a1.47,1.47,0,0,0-1.47-1.47Z" transform="translate(15.698 71.267)" fill="#f26c55" stroke="#161616" stroke-width="0"/>
        <path  d="M33.358-17.88a7.394,7.394,0,0,1-7.394-7.394,7.394,7.394,0,0,1,7.394-7.394,7.394,7.394,0,0,1,7.394,7.394,7.405,7.405,0,0,1-7.394,7.395Zm0-17.734A10.335,10.335,0,0,0,23.023-25.279,10.335,10.335,0,0,0,33.358-14.944,10.335,10.335,0,0,0,43.693-25.279,10.349,10.349,0,0,0,33.358-35.614" transform="translate(20.418 75.966)" fill="#f26c55" stroke="#161616" stroke-width="0"/>
        <path  d="M29.191-45.587a1.47,1.47,0,0,0,1.47-1.47V-55.53A1.47,1.47,0,0,0,29.191-57a1.47,1.47,0,0,0-1.47,1.47v8.472a1.47,1.47,0,0,0,1.47,1.47" transform="translate(24.584 57)" fill="current" stroke="current" stroke-width="0"/>
        <path  d="M50.569-48.45l-5.991,5.991a1.471,1.471,0,0,0,0,2.08,1.471,1.471,0,0,0,2.08,0l5.991-5.991a1.47,1.47,0,0,0,0-2.08,1.47,1.47,0,0,0-2.079,0" transform="translate(39.152 64.2)" fill="current" stroke="current" stroke-width="0"/>
        <path  d="M60.894-29.279H52.422a1.47,1.47,0,0,0-1.47,1.47,1.47,1.47,0,0,0,1.47,1.47h8.472a1.47,1.47,0,0,0,1.47-1.47,1.47,1.47,0,0,0-1.47-1.47" transform="translate(45.186 81.584)" fill="current" stroke="current" stroke-width="0"/>
        <path  d="M9.943-29.279H1.47A1.47,1.47,0,0,0,0-27.809a1.47,1.47,0,0,0,1.47,1.47H9.943a1.47,1.47,0,0,0,1.47-1.47,1.47,1.47,0,0,0-1.47-1.47" transform="translate(0 81.584)" fill="current" stroke="current" stroke-width="0"/>
        <path  d="M16.62-42.459,10.629-48.45a1.47,1.47,0,0,0-2.08,0,1.47,1.47,0,0,0,0,2.08l5.991,5.991a1.47,1.47,0,0,0,2.08,0,1.47,1.47,0,0,0,0-2.08" transform="translate(7.2 64.2)" fill="current" stroke="current" stroke-width="0"/>
      </g>
    </g>
  </g>
</svg>
