<svg xmlns="http://www.w3.org/2000/svg" width="120" height="120" viewBox="0 0 120 120">
  <g id="Group_14024" data-name="Group 14024" transform="translate(-938 -512)">
   
    <g transform="translate(760 -3396.891)">
      <g transform="translate(134.213 160.922)">
        <g transform="translate(82 3762.969)" fill="none" stroke="#f26c55" stroke-width="1.7">
          <circle cx="26.5" cy="26.5" r="26.5" stroke="none"/>
          <circle cx="26.5" cy="26.5" r="25.65" fill="none"/>
        </g>
        <g transform="translate(89 3769.969)" fill="none" stroke="#f26c55" stroke-width="1.7">
          <circle cx="20" cy="20" r="20" stroke="none"/>
          <circle cx="20" cy="20" r="19.15" fill="none"/>
        </g>
        <g  transform="translate(97.5 3777.969)" fill="none" stroke="#f26c55" stroke-width="1.7">
          <circle cx="11.5" cy="11.5" r="11.5" stroke="none"/>
          <circle cx="11.5" cy="11.5" r="10.65" fill="none"/>
        </g>
        <path  d="M-4688.754,3597.028l7.728,8.739h10.375" transform="translate(4790.25 185.007)" fill="none" stroke="#f26c55" stroke-width="1.7"/>
        <path  d="M-4582.129,3713.165l6.527,6.463,6.509-6.463-6.509-6.114" transform="translate(4505.773 -137.317) rotate(-3)" fill="none" stroke="#f26c55" stroke-width="1.7"/>
        <g  transform="translate(129.543 3817.375) rotate(-47)" fill="none" stroke="#f26c55" stroke-width="1.7">
          <rect width="12.758" height="26.721" rx="2" stroke="none"/>
          <rect x="0.85" y="0.85" width="11.058" height="25.021" rx="1.15" fill="none"/>
        </g>
        <g  transform="translate(48.286 3790.101)">
          <g transform="translate(2.714 -0.023)" fill="none" stroke="current" stroke-width="1.7">
            <rect width="11" height="63" rx="1" stroke="none"/>
            <rect x="0.85" y="0.85" width="9.3" height="61.3" rx="0.15" fill="none"/>
          </g>
          <g  transform="translate(19.714 14.868)" fill="none" stroke="current" stroke-width="1.7">
            <rect width="11" height="48" rx="1" stroke="none"/>
            <rect x="0.85" y="0.85" width="9.3" height="46.3" rx="0.15" fill="none"/>
          </g>
          <g  transform="translate(36.714 30.868)" fill="none" stroke="current" stroke-width="1.7">
            <rect width="10" height="32" rx="1" stroke="none"/>
            <rect x="0.85" y="0.85" width="8.3" height="30.3" rx="0.15" fill="none"/>
          </g>
          <g  transform="translate(54.714 27.977)" fill="none" stroke="current" stroke-width="1.7">
            <rect width="11" height="35" rx="1" stroke="none"/>
            <rect x="0.85" y="0.85" width="9.3" height="33.3" rx="0.15" fill="none"/>
          </g>
          <g  transform="translate(1.5 61.368)" fill="none" stroke="current" stroke-width="1">
            <rect width="65" height="1.5" stroke="none"/>
            <rect x="0.5" y="0.5" width="64" height="0.5" fill="none"/>
          </g>
        </g>
      </g>
    </g>
  </g>
</svg>
