<svg xmlns="http://www.w3.org/2000/svg" xmlns:xlink="http://www.w3.org/1999/xlink" width="120" height="120" viewBox="0 0 120 120">
  <defs>
    <clipPath id="clip-path">
      <path  d="M0,33.82H82.819V-49H0Z" transform="translate(0 49)" fill="#fff" stroke="#161616" stroke-width="2"/>
    </clipPath>
  </defs>
  <g  transform="translate(-584 -841)">
    <!-- <rect  width="120" height="120" transform="translate(584 841)" fill="none"/> -->
    <g  transform="translate(603 909)">
      <g transform="translate(0 -49)" clip-path="url(#clip-path)">
        <path  d="M65.114-19.736a26.534,26.534,0,0,1,1.652,3.976,3.073,3.073,0,0,0,2.213,2.047l10.952,2.608v7.03L68.979-1.468A3.071,3.071,0,0,0,66.766.579a26.518,26.518,0,0,1-1.652,3.976,3.073,3.073,0,0,0,.116,3.014l5.9,9.593-4.971,4.971-9.593-5.9a3.072,3.072,0,0,0-3.014-.116,26.544,26.544,0,0,1-3.976,1.652,3.073,3.073,0,0,0-2.047,2.213L44.925,30.93h-7.03L35.287,19.978a3.072,3.072,0,0,0-2.047-2.213,26.536,26.536,0,0,1-3.976-1.652,3.069,3.069,0,0,0-3.014.116l-9.593,5.9-4.971-4.971,5.9-9.593a3.072,3.072,0,0,0,.116-3.014A26.51,26.51,0,0,1,16.054.579a3.072,3.072,0,0,0-2.213-2.048L2.889-4.075v-7.03l10.952-2.608a3.074,3.074,0,0,0,2.213-2.047,26.534,26.534,0,0,1,1.651-3.976,3.072,3.072,0,0,0-.117-3.014l-5.9-9.593,4.971-4.971,9.593,5.9a3.073,3.073,0,0,0,3.014.116,26.607,26.607,0,0,1,3.976-1.651,3.073,3.073,0,0,0,2.047-2.213L37.9-46.111h7.03l2.608,10.952a3.071,3.071,0,0,0,2.047,2.213,26.6,26.6,0,0,1,3.976,1.651,3.073,3.073,0,0,0,3.014-.116l9.593-5.9,4.971,4.971-5.9,9.593A3.072,3.072,0,0,0,65.114-19.736ZM63.289-41.179,53.8-35.341q-.759-.34-1.533-.637L49.69-46.811A2.849,2.849,0,0,0,46.919-49H35.9a2.849,2.849,0,0,0-2.771,2.189L30.551-35.978q-.773.3-1.533.637l-9.487-5.838a2.849,2.849,0,0,0-3.507.412l-7.79,7.791a2.849,2.849,0,0,0-.412,3.507l5.838,9.486q-.34.759-.637,1.533L2.189-15.87A2.849,2.849,0,0,0,0-13.1V-2.081A2.848,2.848,0,0,0,2.189.69L13.023,3.269q.3.772.637,1.533L7.822,14.289A2.849,2.849,0,0,0,8.233,17.8l7.79,7.79A2.85,2.85,0,0,0,19.531,26l9.486-5.838q.759.34,1.533.637L33.13,31.631A2.849,2.849,0,0,0,35.9,33.82H46.918a2.849,2.849,0,0,0,2.771-2.189L52.269,20.8q.773-.3,1.533-.637L63.288,26a2.849,2.849,0,0,0,3.507-.412l7.791-7.79A2.849,2.849,0,0,0,75,14.289L69.16,4.8q.34-.76.637-1.533L80.63.69a2.849,2.849,0,0,0,2.189-2.771V-13.1A2.849,2.849,0,0,0,80.63-15.87L69.8-18.449q-.3-.773-.637-1.533L75-29.469a2.849,2.849,0,0,0-.412-3.507L66.8-40.767a2.848,2.848,0,0,0-3.506-.412" transform="translate(0 49)" fill="current" stroke="current" stroke-width="1.5"/>
        <path  d="M33.473,3.165A18.825,18.825,0,0,1,14.58-15.592,18.825,18.825,0,0,1,33.473-34.349,18.825,18.825,0,0,1,52.365-15.592,18.825,18.825,0,0,1,33.473,3.165m0-40.571A21.894,21.894,0,0,0,11.5-15.592,21.894,21.894,0,0,0,33.473,6.222,21.894,21.894,0,0,0,55.445-15.592,21.894,21.894,0,0,0,33.473-37.407" transform="translate(7.937 57.002)" fill="#FF8A8A" stroke="current" stroke-width="0"/>
        <path  d="M40.076-12.6l-8.6,3.76V-20.014l8.6-3.677ZM19.763-23.692l8.6,3.677V-8.839l-8.6-3.761ZM29.92-29.475l7.79,3.407-7.79,3.331-7.79-3.331Zm13.273,3.423a1.7,1.7,0,0,0-.934-1.427L30.544-32.6a1.559,1.559,0,0,0-1.249,0L17.581-27.48a1.582,1.582,0,0,0-.934,1.427V-11.58a1.558,1.558,0,0,0,.934,1.428L29.3-5.029a1.577,1.577,0,0,0,1.249,0l11.715-5.123a1.607,1.607,0,0,0,.934-1.031Z" transform="translate(11.49 60.227)" fill="#f26c55" stroke="#161616" stroke-width="1"/>
      </g>
    </g>
  </g>
</svg>
