<svg xmlns="http://www.w3.org/2000/svg" xmlns:xlink="http://www.w3.org/1999/xlink" width="120" height="120" viewBox="0 0 120 120">
  <defs>
   
  </defs>
  <g transform="translate(-324 -520)">
    <!-- <rect id="Rectangle_1925" data-name="Rectangle 1925" width="120" height="120" transform="translate(324 520)" fill="none"/> -->
    <g transform="translate(340 585)">
      <g  transform="translate(0 -48)" >
        <path  d="M85.861-17.986a6.636,6.636,0,0,0-4.494-1.736,6.6,6.6,0,0,0-4.7,1.933L68.243-9.377H55.878a6.16,6.16,0,0,0,1.278-3.95,6.471,6.471,0,0,0-6.535-6.122H36.295a8.88,8.88,0,0,0-3.572.745L22.275-14.14h-4.74v-1.117a1.275,1.275,0,0,0-1.288-1.262H10.9a1.275,1.275,0,0,0-1.288,1.262A1.275,1.275,0,0,0,10.9-13.995h4.061V13.151H2.577V-13.994H4.886a1.275,1.275,0,0,0,1.288-1.262,1.275,1.275,0,0,0-1.288-1.262h-3.6A1.275,1.275,0,0,0,0-15.256v29.67a1.275,1.275,0,0,0,1.288,1.262H16.247a1.275,1.275,0,0,0,1.288-1.262v-.387H31.341a20.392,20.392,0,0,0,4.8-.574L57.491,8.275a1.261,1.261,0,0,0,.941-1.528,1.29,1.29,0,0,0-1.56-.922L35.524,11a17.748,17.748,0,0,1-4.184.5H17.535V-11.615h5.014a1.313,1.313,0,0,0,.525-.109l10.7-4.674a6.272,6.272,0,0,1,2.523-.527H50.621a3.9,3.9,0,0,1,3.96,3.667,3.709,3.709,0,0,1-1.09,2.739,7.092,7.092,0,0,1-2.775,1.143h-9.8a1.275,1.275,0,0,0-1.288,1.262A1.275,1.275,0,0,0,40.92-6.853H68.784a1.3,1.3,0,0,0,.92-.378l8.8-8.79A4.019,4.019,0,0,1,81.367-17.2,4.038,4.038,0,0,1,84.1-16.142a3.875,3.875,0,0,1,.194,5.547L75.73-1.606a17.427,17.427,0,0,1-8.554,4.931l-4.47,1.084a1.261,1.261,0,0,0-.941,1.528,1.284,1.284,0,0,0,1.249.959,1.308,1.308,0,0,0,.311-.038L67.8,5.775A20.005,20.005,0,0,0,77.615.114l8.563-8.987a6.366,6.366,0,0,0-.318-9.113" transform="translate(0 70.476)" fill="current" stroke="current" stroke-width=".5"/>
        <path  d="M40.2.076c13.531,0,24.54-10.784,24.54-24.038A23.756,23.756,0,0,0,59.16-39.209a1.307,1.307,0,0,0-1.813-.172,1.244,1.244,0,0,0-.176,1.776,21.258,21.258,0,0,1,5,13.644A21.767,21.767,0,0,1,40.2-2.448,21.767,21.767,0,0,1,18.239-23.962,21.767,21.767,0,0,1,40.2-45.476,22.087,22.087,0,0,1,53.04-41.408a1.306,1.306,0,0,0,1.8-.284,1.245,1.245,0,0,0-.289-1.762A24.688,24.688,0,0,0,40.2-48c-13.531,0-24.54,10.784-24.54,24.038S26.671.076,40.2.076" transform="translate(12.449 48)" fill="current" stroke="current" stroke-width="1"/>
        <path  d="M47.567-31.472a10.772,10.772,0,0,1,.692,1.633,1.278,1.278,0,0,0,.928.841l4.592,1.071v2.887l-4.592,1.071a1.278,1.278,0,0,0-.928.841,10.763,10.763,0,0,1-.692,1.633,1.24,1.24,0,0,0,.049,1.238l2.475,3.94-2.084,2.041L43.984-16.7a1.311,1.311,0,0,0-1.264-.048,11.253,11.253,0,0,1-1.667.678,1.273,1.273,0,0,0-.858.909l-1.093,4.5H36.154l-1.093-4.5a1.272,1.272,0,0,0-.858-.909,11.253,11.253,0,0,1-1.667-.678,1.31,1.31,0,0,0-1.264.048L27.25-14.276l-2.084-2.041,2.475-3.94a1.239,1.239,0,0,0,.049-1.238A10.765,10.765,0,0,1,27-23.128a1.278,1.278,0,0,0-.928-.841L21.477-25.04v-2.887L26.069-29A1.278,1.278,0,0,0,27-29.839a10.772,10.772,0,0,1,.692-1.633,1.239,1.239,0,0,0-.049-1.238l-2.475-3.94,2.084-2.042,4.022,2.425a1.312,1.312,0,0,0,1.264.048A11.287,11.287,0,0,1,34.2-36.9a1.273,1.273,0,0,0,.858-.909l1.093-4.5H39.1l1.093,4.5a1.272,1.272,0,0,0,.858.909,11.288,11.288,0,0,1,1.667.678,1.311,1.311,0,0,0,1.263-.048l4.022-2.425,2.084,2.042-2.475,3.94a1.239,1.239,0,0,0-.049,1.238m-.044-9.891-4.29,2.586q-.343-.151-.693-.282l-1.167-4.8a1.283,1.283,0,0,0-1.253-.97H35.137a1.283,1.283,0,0,0-1.253.97l-1.167,4.8q-.349.132-.693.282l-4.29-2.586a1.309,1.309,0,0,0-1.586.182l-3.523,3.451a1.243,1.243,0,0,0-.186,1.554l2.64,4.2q-.154.336-.288.679l-4.9,1.143a1.268,1.268,0,0,0-.99,1.228v4.881a1.267,1.267,0,0,0,.99,1.228l4.9,1.143q.134.342.288.679l-2.64,4.2a1.243,1.243,0,0,0,.186,1.554l3.523,3.451a1.309,1.309,0,0,0,1.586.182l4.29-2.586q.343.151.693.282l1.167,4.8a1.283,1.283,0,0,0,1.253.97h4.983a1.283,1.283,0,0,0,1.253-.97l1.167-4.8q.35-.132.693-.282l4.29,2.586a1.309,1.309,0,0,0,1.586-.182l3.523-3.451a1.243,1.243,0,0,0,.186-1.554l-2.64-4.2q.154-.336.288-.679l4.9-1.143a1.267,1.267,0,0,0,.99-1.228v-4.881a1.268,1.268,0,0,0-.99-1.228l-4.9-1.143q-.134-.343-.288-.679l2.64-4.2a1.243,1.243,0,0,0-.186-1.554L49.108-41.18a1.308,1.308,0,0,0-1.586-.182" transform="translate(15.023 50.522)" fill="#f26c55" stroke="#f26c55" stroke-width=".5"/>
        <path  d="M32.112-28.268a3.661,3.661,0,0,1-3.694-3.619,3.661,3.661,0,0,1,3.694-3.619,3.661,3.661,0,0,1,3.694,3.619,3.661,3.661,0,0,1-3.694,3.619m0-9.761a6.215,6.215,0,0,0-6.271,6.143,6.215,6.215,0,0,0,6.271,6.143,6.215,6.215,0,0,0,6.271-6.143,6.215,6.215,0,0,0-6.271-6.143" transform="translate(20.539 55.925)" fill="current" stroke="current" stroke-width="1"/>
      </g>
    </g>
  </g>
</svg>
