<svg  xmlns="http://www.w3.org/2000/svg" xmlns:xlink="http://www.w3.org/1999/xlink" 
      width="120" height="120" viewBox="0 0 120 120">
  <defs>
    <clipPath id="clip-path">
      <path d="M0,42.891H54.137V-62H0Z" transform="translate(0 62)" fill="#fff"/>
    </clipPath>
  </defs>
  <g  transform="translate(-246 -255)">
  <!-- <rect id="Rectangle_1921" data-name="Rectangle 1921" width="120" height="120" transform="translate(246 255)" fill="none"/> -->
    <g transform="translate(279 325)">
      <g transform="translate(0 -62)" clip-path="url(#clip-path)">
        <path d="M42.859,7.744c1.221-3.189,3.177-11.259,3.2-11.388A23.09,23.09,0,0,1,49.74,8.963a23.528,23.528,0,0,1-2.041,9.59,21.3,21.3,0,0,0-4.839-10.81m-4.776.085H16.033a61.379,61.379,0,0,1-.5-45.764h23.06a61.381,61.381,0,0,1-.5,45.764M6.438,18.553A23.2,23.2,0,0,1,4.4,8.963,23.2,23.2,0,0,1,8.08-3.644c.021.171,2.314,9.1,3.2,11.388a20.959,20.959,0,0,0-4.839,10.81m20.62-75.132a59.613,59.613,0,0,1,9.594,14.213H17.485a58.5,58.5,0,0,1,9.573-14.213M46.9-9.766A65.555,65.555,0,0,0,28.615-61.374a2.223,2.223,0,0,0-3.093,0A65.528,65.528,0,0,0,7.238-9.766,27.592,27.592,0,0,0,0,8.963,27.623,27.623,0,0,0,7.469,27.929a2.2,2.2,0,0,0,3.7-2.1,25.5,25.5,0,0,1-.568-4.26,16.759,16.759,0,0,1,2.946-9.547A2.206,2.206,0,0,0,14.6,12.3H39.535a2.206,2.206,0,0,0,1.052-.278,16.756,16.756,0,0,1,2.946,9.547,31.237,31.237,0,0,1-.568,4.26,2.2,2.2,0,0,0,3.7,2.1A27.76,27.76,0,0,0,54.137,8.963,27.653,27.653,0,0,0,46.9-9.766" transform="translate(0 62)" fill="current" stroke="current" stroke-width="2"/>
        <path d="M11.653-15.879a2.206,2.206,0,0,0-2.188,2.226V-2.458A2.206,2.206,0,0,0,11.653-.231a2.22,2.22,0,0,0,2.188-2.226V-13.653a2.206,2.206,0,0,0-2.188-2.226" transform="translate(6.547 93.906)" fill="#f26c55" stroke="current" stroke-width="1"/>
        <path d="M16.9-15.879a2.176,2.176,0,0,0-1.557.664l-.021.021a2.247,2.247,0,0,0-.547.985,2.741,2.741,0,0,0-.084.6V8.759a2.146,2.146,0,0,0,.063.514,2.175,2.175,0,0,0,4.25,0,2.145,2.145,0,0,0,.063-.514V-13.653a1.874,1.874,0,0,0-.084-.6A2.135,2.135,0,0,0,16.9-15.879" transform="translate(10.161 93.906)" fill="#f26c55" stroke="current" stroke-width="1"/>
        <path d="M22.124-15.879a2.206,2.206,0,0,0-2.188,2.226V-2.458A2.206,2.206,0,0,0,22.124-.231a2.22,2.22,0,0,0,2.188-2.226V-13.653a2.179,2.179,0,0,0-2.188-2.226" transform="translate(13.792 93.906)" fill="#f26c55" stroke="current" stroke-width="1"/>
      </g>
    </g>
  </g>
</svg>
