<svg xmlns="http://www.w3.org/2000/svg" width="92.077" height="69.91" viewBox="0 0 92.077 69.91">
  <g id="Group_13855" data-name="Group 13855" transform="translate(0.62 0.6)">
    <g id="Group_13062" data-name="Group 13062">
      <path id="Path_15878" data-name="Path 15878" d="M-3731.209,2815.2h-39.742s-7.142-.421-7.412,6.331,0,38.638,0,38.638-1.205,8.973,7.412,8.712,64.759,0,64.759,0,5.813.655,6.118-4.593a92.682,92.682,0,0,0,0-10.024" transform="translate(3779.489 -2811.688)" fill="none" stroke="current" stroke-width="1.2"/>
      <path id="Path_15881" data-name="Path 15881" d="M49.384-30.625a11.456,11.456,0,0,1,.736,1.737,1.359,1.359,0,0,0,.987.894l4.883,1.139v3.07l-4.883,1.139a1.359,1.359,0,0,0-.987.894,11.445,11.445,0,0,1-.736,1.736,1.318,1.318,0,0,0,.052,1.316l2.632,4.19-2.216,2.171-4.277-2.578a1.394,1.394,0,0,0-1.344-.051,11.965,11.965,0,0,1-1.773.721,1.353,1.353,0,0,0-.913.966L40.382-8.5H37.248L36.085-13.28a1.353,1.353,0,0,0-.913-.966,11.965,11.965,0,0,1-1.773-.721,1.393,1.393,0,0,0-1.344.051l-4.277,2.578L25.563-14.51l2.632-4.19a1.318,1.318,0,0,0,.052-1.316,11.447,11.447,0,0,1-.736-1.736,1.359,1.359,0,0,0-.987-.894l-4.883-1.139v-3.07l4.883-1.139a1.36,1.36,0,0,0,.987-.894,11.456,11.456,0,0,1,.736-1.737,1.318,1.318,0,0,0-.052-1.316l-2.632-4.19L27.779-38.3l4.277,2.578a1.4,1.4,0,0,0,1.344.051,12,12,0,0,1,1.773-.721,1.353,1.353,0,0,0,.913-.966l1.163-4.783h3.134l1.163,4.783a1.353,1.353,0,0,0,.913.966,12,12,0,0,1,1.773.721,1.4,1.4,0,0,0,1.343-.051L49.852-38.3l2.216,2.171-2.632,4.19a1.318,1.318,0,0,0-.052,1.316m-.047-10.518-4.562,2.75q-.365-.16-.737-.3L42.8-43.8a1.365,1.365,0,0,0-1.333-1.031h-5.3A1.365,1.365,0,0,0,34.833-43.8l-1.24,5.1q-.372.14-.737.3l-4.562-2.75a1.392,1.392,0,0,0-1.687.194l-3.747,3.67a1.321,1.321,0,0,0-.2,1.652l2.807,4.469q-.164.358-.306.722l-5.21,1.215A1.348,1.348,0,0,0,18.9-27.915v5.19a1.348,1.348,0,0,0,1.053,1.305l5.21,1.215q.142.364.306.722l-2.807,4.469a1.322,1.322,0,0,0,.2,1.652l3.747,3.67a1.392,1.392,0,0,0,1.687.194l4.562-2.75q.365.16.737.3l1.24,5.1a1.365,1.365,0,0,0,1.333,1.031h5.3A1.365,1.365,0,0,0,42.8-6.844l1.24-5.1q.372-.14.737-.3L49.337-9.5a1.391,1.391,0,0,0,1.687-.194l3.747-3.67a1.321,1.321,0,0,0,.2-1.652l-2.808-4.469q.164-.358.306-.722l5.21-1.215a1.348,1.348,0,0,0,1.053-1.305v-5.19a1.348,1.348,0,0,0-1.053-1.305l-5.21-1.215q-.143-.364-.306-.722l2.807-4.469a1.321,1.321,0,0,0-.2-1.652l-3.747-3.67a1.391,1.391,0,0,0-1.686-.194" transform="translate(32.127 44.827)" fill="current" stroke="#fff" stroke-width="1.2"/>
      <path id="Path_15882" data-name="Path 15882" d="M29.314-39.976a3.913,3.913,0,0,1,.252.593.464.464,0,0,0,.337.305l1.668.389v1.049L29.9-37.25a.464.464,0,0,0-.337.305,3.909,3.909,0,0,1-.252.593.45.45,0,0,0,.018.45l.9,1.431-.757.742-1.461-.881a.476.476,0,0,0-.459-.017,4.088,4.088,0,0,1-.606.246.462.462,0,0,0-.312.33l-.4,1.634H25.168l-.4-1.634a.462.462,0,0,0-.312-.33,4.088,4.088,0,0,1-.606-.246.476.476,0,0,0-.459.017l-1.461.881-.757-.742.9-1.431a.45.45,0,0,0,.018-.45,3.91,3.91,0,0,1-.252-.593.464.464,0,0,0-.337-.305l-1.668-.389v-1.049l1.668-.389a.464.464,0,0,0,.337-.305,3.914,3.914,0,0,1,.252-.593.45.45,0,0,0-.018-.45l-.9-1.431.757-.742,1.461.881a.477.477,0,0,0,.459.017,4.1,4.1,0,0,1,.606-.246.462.462,0,0,0,.312-.33l.4-1.634h1.071l.4,1.634a.462.462,0,0,0,.312.33,4.1,4.1,0,0,1,.606.246.476.476,0,0,0,.459-.017l1.461-.881.757.742-.9,1.431a.45.45,0,0,0-.018.45M29.3-43.569l-1.558.939q-.125-.055-.252-.1l-.424-1.743a.466.466,0,0,0-.455-.352H24.8a.466.466,0,0,0-.455.352l-.424,1.743q-.127.048-.252.1l-1.558-.939a.475.475,0,0,0-.576.066l-1.28,1.254a.451.451,0,0,0-.068.564l.959,1.527q-.056.122-.1.247l-1.78.415a.461.461,0,0,0-.36.446v1.773a.46.46,0,0,0,.36.446l1.78.415q.049.124.1.247l-.959,1.527a.452.452,0,0,0,.068.564l1.28,1.254a.476.476,0,0,0,.576.066l1.558-.939q.125.055.252.1l.424,1.743a.466.466,0,0,0,.455.352h1.81a.466.466,0,0,0,.455-.352l.424-1.743q.127-.048.252-.1l1.558.939a.475.475,0,0,0,.576-.066l1.28-1.254a.451.451,0,0,0,.068-.564l-.959-1.527q.056-.122.1-.247l1.78-.415a.46.46,0,0,0,.36-.446V-39.05a.46.46,0,0,0-.36-.446l-1.78-.415q-.049-.124-.1-.247l.959-1.527a.451.451,0,0,0-.068-.564L29.874-43.5a.475.475,0,0,0-.576-.066" transform="translate(-10.559 62.677)" fill="#f05b41"/>
      <path id="Path_15883" data-name="Path 15883" d="M34.142-37.726a5.729,5.729,0,0,1,.368.868.68.68,0,0,0,.493.447l2.442.569v1.535L35-33.737a.679.679,0,0,0-.493.447,5.723,5.723,0,0,1-.368.868.659.659,0,0,0,.026.658l1.316,2.095-1.108,1.085-2.139-1.289a.7.7,0,0,0-.672-.025,5.982,5.982,0,0,1-.886.361.677.677,0,0,0-.456.483l-.581,2.392H28.074l-.581-2.392a.676.676,0,0,0-.456-.483,5.982,5.982,0,0,1-.886-.361.7.7,0,0,0-.672.025L23.34-28.583l-1.108-1.085,1.316-2.095a.659.659,0,0,0,.026-.658,5.723,5.723,0,0,1-.368-.868.68.68,0,0,0-.493-.447l-2.442-.569v-1.535l2.442-.569a.68.68,0,0,0,.493-.447,5.729,5.729,0,0,1,.368-.868.659.659,0,0,0-.026-.658l-1.316-2.095,1.108-1.085,2.139,1.289a.7.7,0,0,0,.672.025,6,6,0,0,1,.886-.361.677.677,0,0,0,.456-.483l.581-2.392h1.567l.581,2.392a.676.676,0,0,0,.456.483,6,6,0,0,1,.886.361.7.7,0,0,0,.672-.025l2.139-1.289,1.108,1.085-1.316,2.095a.659.659,0,0,0-.026.658m-.023-5.259L31.838-41.61q-.183-.08-.369-.15l-.62-2.552a.682.682,0,0,0-.666-.516H27.534a.682.682,0,0,0-.666.516l-.62,2.552q-.186.07-.369.15L23.6-42.985a.7.7,0,0,0-.843.1l-1.873,1.835a.661.661,0,0,0-.1.826l1.4,2.234q-.082.179-.153.361l-2.605.608a.674.674,0,0,0-.526.653v2.6a.674.674,0,0,0,.526.653l2.605.608q.071.182.153.361l-1.4,2.234a.661.661,0,0,0,.1.826l1.873,1.835a.7.7,0,0,0,.843.1l2.281-1.375q.182.08.369.15l.62,2.552a.682.682,0,0,0,.666.516h2.649a.682.682,0,0,0,.666-.516l.62-2.552q.186-.07.369-.15l2.281,1.375a.7.7,0,0,0,.843-.1l1.873-1.835a.661.661,0,0,0,.1-.826l-1.4-2.234q.082-.179.153-.361l2.605-.608a.674.674,0,0,0,.526-.653v-2.6a.674.674,0,0,0-.526-.653l-2.605-.608q-.071-.182-.153-.361l1.4-2.234a.661.661,0,0,0-.1-.826l-1.873-1.835a.7.7,0,0,0-.843-.1" transform="translate(3.047 71.36)" fill="#f05b41" stroke="#fff" stroke-width="0.3"/>
      <g id="Ellipse_58" data-name="Ellipse 58" transform="translate(65.901 15.17)" fill="#fff" stroke="current" stroke-width="1.4">
        <circle cx="4.949" cy="4.949" r="4.949" stroke="none"/>
        <circle cx="4.949" cy="4.949" r="4.249" fill="none"/>
      </g>
      <g id="Ellipse_59" data-name="Ellipse 59" transform="translate(13.314 22.893)" fill="#fff" stroke="#f05b41" stroke-width="0.7">
        <ellipse cx="1.82" cy="1.82" rx="1.82" ry="1.82" stroke="none"/>
        <ellipse cx="1.82" cy="1.82" rx="1.47" ry="1.47" fill="none"/>
      </g>
      <g id="Ellipse_60" data-name="Ellipse 60" transform="translate(29.224 33.915)" fill="#fff" stroke="#f05b41" stroke-width="1">
        <ellipse cx="2.664" cy="2.664" rx="2.664" ry="2.664" stroke="none"/>
        <ellipse cx="2.664" cy="2.664" rx="2.164" ry="2.164" fill="none"/>
      </g>
      <path id="Path_15884" data-name="Path 15884" d="M-3880.386,2867.941h28.927s.314-2.393,4.557-2.425,12.691,0,12.691,0,3.478.091,4.177,2.741c.046-.038,29.251-.316,29.251-.316s.286,4.1-2.631,4.187-75.247,0-75.247,0a4.94,4.94,0,0,1-2.669-4.187C-3881.319,2867.923-3880.386,2867.941-3880.386,2867.941Z" transform="translate(3881.329 -2803.452)" fill="none" stroke="current" stroke-width="1.2"/>
    </g>
    <path id="Path_15885" data-name="Path 15885" d="M-3739.234,2812.98h-40.626s-2.674,1.073-2.6,2.945,0,39.688,0,39.688.122,3.466,2.6,4.28,65.907,0,65.907,0,3.208.081,3.253-2.768,0-8.935,0-8.935" transform="translate(3786.62 -2806.204)" fill="none" stroke="current" stroke-width="1"/>
  </g>
</svg>
