<svg id="Group_14020" data-name="Group 14020" xmlns="http://www.w3.org/2000/svg" xmlns:xlink="http://www.w3.org/1999/xlink" width="100%" height="100%" viewBox="0 0 474.574 397.568">
  <defs>
    <clipPath id="clip-path">
      <rect id="Rectangle_1920" data-name="Rectangle 1920" width="474.574" height="397.568" fill="none"/>
    </clipPath>
  </defs>
  <path id="Path_16264" data-name="Path 16264" d="M218.135,224.613h-27.7l-11.013-28.651H129l-10.411,28.651H91.573L140.7,98.481h26.93Zm-46.891-49.9-17.38-46.8-17.035,46.8Z" transform="translate(-9.289 -9.989)" fill="current"/>
  <rect id="Rectangle_1919" data-name="Rectangle 1919" width="24.177" height="126.132" transform="translate(222.183 88.492)" fill="current"/>
  <g id="Group_14011" data-name="Group 14011">
    <g id="Group_14010" data-name="Group 14010" clip-path="url(#clip-path)">
      <path id="Path_16265" data-name="Path 16265" d="M426.342,73.039l.433,1.4,1.959-.219a4.305,4.305,0,0,0,.775.927l-.582,1.88,1.3.7,1.228-1.551a4.447,4.447,0,0,0,1.209.122l.919,1.733,1.4-.427-.22-1.953a4.545,4.545,0,0,0,.939-.781l1.875.573.684-1.294-1.537-1.22a4.392,4.392,0,0,0,.11-1.221l1.738-.916-.435-1.392-1.953.22a3.952,3.952,0,0,0-.772-.928l.583-1.88-1.3-.684-1.227,1.526a5.027,5.027,0,0,0-1.207-.11l-.92-1.733-1.4.428.219,1.953a4.5,4.5,0,0,0-.934.782l-1.884-.586-.684,1.306,1.543,1.221a4.341,4.341,0,0,0-.11,1.209Zm5.141-4.407a3.43,3.43,0,1,1-2.318,4.261,3.427,3.427,0,0,1,2.318-4.261m-99.024,71.83,4.321,1.709.265-.6a20.588,20.588,0,0,0,1.767-8.032l.011-.66-4.644-.256a16.253,16.253,0,0,0-.807-4.53l4.268-1.843-.235-.61a20.564,20.564,0,0,0-4.432-6.934l-.455-.476-3.465,3.114a15.107,15.107,0,0,0-1.8-1.453,14.491,14.491,0,0,0-1.984-1.184l1.718-4.334-.6-.256a20.7,20.7,0,0,0-8.039-1.77l-.653-.013-.253,4.639a18.021,18.021,0,0,0-2.3.244,17.681,17.681,0,0,0-2.24.573l-1.843-4.273-.609.232a20.847,20.847,0,0,0-6.935,4.432l-.47.464,3.1,3.455a16.8,16.8,0,0,0-1.453,1.807,15.829,15.829,0,0,0-1.184,1.978l-4.323-1.722-.263.6a20.642,20.642,0,0,0-1.767,8.045l-.012.647,4.645.256a16.106,16.106,0,0,0,.243,2.295,16.343,16.343,0,0,0,.566,2.246l-4.271,1.843.236.611A20.6,20.6,0,0,0,303,147.64l.454.465,3.464-3.1a16.649,16.649,0,0,0,1.8,1.452,15.775,15.775,0,0,0,1.984,1.184l-1.719,4.322.6.268a20.723,20.723,0,0,0,8.039,1.77h.653l.255-4.638a16.1,16.1,0,0,0,2.3-.244,17.225,17.225,0,0,0,2.237-.562l1.843,4.273.609-.244a20.5,20.5,0,0,0,6.935-4.432l.468-.452-3.1-3.467a15.858,15.858,0,0,0,1.451-1.794,17.01,17.01,0,0,0,1.186-1.978m-5.686-1.038A10.784,10.784,0,1,1,316.2,122.541a10.119,10.119,0,0,1,1.811-.159,10.788,10.788,0,0,1,8.761,17.042M210.613,61.063l2.857-1.819a.509.509,0,0,0,.092.037l.568,3.369,4.956.146.735-3.3.125-.049,2.736,1.989,3.615-3.393-1.819-2.857a.712.712,0,0,0,.041-.085l3.371-.573.155-4.956-3.31-.732s-.033-.085-.051-.135l2-2.746-3.4-3.614-2.866,1.82a.5.5,0,0,1-.084-.037l-.564-3.37-4.956-.159-.737,3.321-.131.049-2.741-2-3.614,3.394,1.82,2.868c-.022.037-.04.086-.059.122l-3.349.526-.153,4.956,3.3.732c.018.049.037.1.037.1l-1.978,2.784Zm3.931-11.988c.136-.122.279-.232.429-.341a3.515,3.515,0,0,1,1.97-.587h.162a3.558,3.558,0,1,1-2.56.928M195.3,130.33c.217.085.409.232.629.317a.562.562,0,0,0,.638-.2l3.528-4.614V114.826c-.046-.024-.1-.024-.145-.049.07-.085.079-.207.145-.293v-8.045a6.837,6.837,0,0,0-7.508-2.514,13.912,13.912,0,0,1,1.493-7.789,6.542,6.542,0,0,0,6.015,1.233V79.058l-.14,1.061c-.638.183-1.254.391-1.84.611l-4.88-4.762a.555.555,0,0,0-.647-.1,29.318,29.318,0,0,0-5.39,3.576.551.551,0,0,0-.156.635l2.582,6.238c-.432.439-.861.916-1.3,1.453l-6.612-1.7a.567.567,0,0,0-.606.244,30.175,30.175,0,0,0-1.9,3.809l1.868,4.664,2.676,2.051c-.146.623-.279,1.257-.394,1.9l-.628.172,8.539,21.327c.11.1.2.183.311.28l-.077.306ZM346.836,49.71c.076.415.171.843.284,1.27l-3.729,1.6.51,1.318a18.516,18.516,0,0,0,4,6.263l.984,1.013,3.026-2.71a12.971,12.971,0,0,0,1.032.793c.354.244.721.476,1.1.7l-1.5,3.772,1.295.573a18.786,18.786,0,0,0,7.253,1.6l1.414.024.222-4.065a11.607,11.607,0,0,0,1.29-.171c.424-.073.849-.171,1.265-.281l1.608,3.736,1.32-.513a18.6,18.6,0,0,0,6.257-4l1.016-.977-2.71-3.027c.278-.341.543-.684.79-1.038s.48-.72.695-1.1l3.777,1.5.571-1.295a18.607,18.607,0,0,0,1.6-7.251l.024-1.415-4.056-.22c-.04-.428-.1-.855-.174-1.294-.076-.415-.169-.843-.282-1.257l3.728-1.612-.51-1.318a18.624,18.624,0,0,0-4-6.262l-.982-1.014-3.028,2.71c-.332-.281-.678-.537-1.032-.793s-.722-.476-1.1-.7l1.5-3.772L369,29.921a18.534,18.534,0,0,0-7.251-1.587l-1.416-.024-.223,4.053c-.43.037-.861.1-1.285.171s-.85.171-1.27.281l-1.608-3.724-1.32.513a18.511,18.511,0,0,0-6.257,3.991l-1.017.989L350.06,37.6c-.279.342-.543.684-.788,1.038s-.481.721-.7,1.1l-3.777-1.5-.571,1.294a18.57,18.57,0,0,0-1.593,7.251l-.024,1.416,4.056.219c.037.439.094.867.171,1.294m7.752-7.458a8.368,8.368,0,0,1,5.435-3.406,9.214,9.214,0,0,1,1.409-.11,8.376,8.376,0,0,1,6.81,13.233,8.38,8.38,0,1,1-13.655-9.717M261.08,61.014c.341,1.513.523,2.271.943,3.735,1.617.317,2.487.476,4.327.806a19.5,19.5,0,0,0,3.263,5.09c-.481,1.794-.7,2.636-1.084,4.224,1.154.988,1.749,1.489,2.968,2.441,1.357-.94,2.088-1.453,3.61-2.552a16.372,16.372,0,0,0,5.844,1.392c.94,1.685,1.392,2.478,2.252,3.98,1.5-.317,2.239-.476,3.681-.866.28-1.636.419-2.515.7-4.371a18.044,18.044,0,0,0,4.956-3.162c1.786.525,2.632.769,4.207,1.184.952-1.136,1.431-1.722,2.352-2.942-.96-1.379-1.476-2.124-2.6-3.687a16.081,16.081,0,0,0,1.244-5.884c1.639-.9,2.417-1.343,3.876-2.174-.34-1.513-.522-2.271-.943-3.735-1.615-.317-2.484-.488-4.319-.806a19.344,19.344,0,0,0-3.269-5.1c.476-1.783.693-2.625,1.075-4.2-1.152-.988-1.746-1.477-2.967-2.441-1.351.927-2.073,1.44-3.585,2.527a16.266,16.266,0,0,0-5.885-1.379c-.932-1.672-1.382-2.466-2.237-3.955-1.5.317-2.236.476-3.68.867-.278,1.624-.415,2.49-.7,4.334a18.032,18.032,0,0,0-4.941,3.161c-1.782-.512-2.627-.757-4.2-1.172-.955,1.136-1.434,1.722-2.357,2.942.955,1.38,1.478,2.124,2.592,3.675a16.056,16.056,0,0,0-1.244,5.884c-1.648.916-2.428,1.355-3.893,2.185M273.4,47.769a14.286,14.286,0,1,1-3.628,19.618A14.114,14.114,0,0,1,273.4,47.769m-69.974,90.679-4.34,1.343,4.34,10.84ZM75.082,167.38a12.913,12.913,0,0,0,2.526,1.258.241.241,0,0,0,.278-.074l1.781-2.332c.3.074.571.122.828.172l.186.659,1.825-4.675a6.9,6.9,0,0,1-1-.013,5.889,5.889,0,0,1-2.147-.647A2.981,2.981,0,0,0,76.15,157a6.073,6.073,0,0,1,.651-3.394,3.018,3.018,0,0,0,3.473.208.221.221,0,0,1,.049-.037,2.992,2.992,0,0,0,1.21-3.381,7.032,7.032,0,0,1,1.245,0,6.152,6.152,0,0,1,2.148.647,3,3,0,0,0-.211,3.479c.159.256.437.341.651.525l3.772-9.681a12.724,12.724,0,0,0-2.463-1.233.244.244,0,0,0-.277.085l-1.786,2.32a8.142,8.142,0,0,0-.828-.159l-.805-2.869a.235.235,0,0,0-.221-.171,11.715,11.715,0,0,0-1.461.013,12.671,12.671,0,0,0-1.351.158.346.346,0,0,0-.187.1l-.4,3.016c-.279.085-.546.171-.8.269l-2.126-2.076a.243.243,0,0,0-.282-.049,12.811,12.811,0,0,0-2.348,1.563.246.246,0,0,0-.067.28l1.123,2.71c-.186.2-.374.4-.566.635l-2.88-.733a.423.423,0,0,0-.208.013,13.238,13.238,0,0,0-1.315,2.612.253.253,0,0,0,.081.281l2.328,1.782c-.064.269-.12.55-.171.83l-2.858.793a.26.26,0,0,0-.177.232,13.433,13.433,0,0,0,.011,1.453c.043.537.094.964.159,1.355a.245.245,0,0,0,.208.208l2.913.391c.084.28.173.549.269.793l-2.081,2.136a.366.366,0,0,0-.09.183,13.259,13.259,0,0,0,1.609,2.441.239.239,0,0,0,.279.061l2.713-1.111c.192.183.4.366.627.562l-.729,2.869a.251.251,0,0,0,.1.268M384.018,66.337c.315,1.453.483,2.173.874,3.589,1.569.293,2.415.428,4.2.721a18.117,18.117,0,0,0,3.114,4.871c-.485,1.733-.708,2.551-1.1,4.077,1.111.94,1.683,1.416,2.859,2.32,1.328-.916,2.045-1.416,3.534-2.491a15.784,15.784,0,0,0,5.668,1.27c.895,1.611,1.327,2.38,2.145,3.809,1.459-.317,2.184-.489,3.591-.879.29-1.575.435-2.417.728-4.212a17.825,17.825,0,0,0,4.853-3.1c1.73.488,2.551.708,4.077,1.1.937-1.111,1.41-1.672,2.319-2.857-.918-1.331-1.413-2.038-2.483-3.528a15.555,15.555,0,0,0,1.271-5.676c1.606-.891,2.365-1.331,3.794-2.137-.315-1.465-.483-2.185-.876-3.589-1.565-.293-2.411-.439-4.189-.732a18.215,18.215,0,0,0-3.122-4.871c.481-1.721.7-2.539,1.091-4.053-1.11-.94-1.681-1.416-2.859-2.332-1.322.916-2.03,1.416-3.513,2.478a15.664,15.664,0,0,0-5.7-1.27c-.89-1.6-1.318-2.356-2.131-3.785-1.457.317-2.181.489-3.587.879-.29,1.563-.432,2.405-.725,4.187a17.807,17.807,0,0,0-4.839,3.1c-1.728-.488-2.546-.708-4.065-1.1-.943,1.112-1.415,1.685-2.326,2.869.916,1.318,1.416,2.026,2.479,3.5a15.657,15.657,0,0,0-1.272,5.689c-1.611.9-2.376,1.331-3.807,2.148m16.026-7.068a6.636,6.636,0,1,1-1.82,9.2,6.647,6.647,0,0,1,1.82-9.2m-166.7-23.488,2.006.9a13.744,13.744,0,0,1,7.733,15.309l-.031.158a13.894,13.894,0,0,1-5.881,8.912,13.547,13.547,0,0,1-7.089,2.283l-2.2.085a13.031,13.031,0,0,1-2.19-.122,55.956,55.956,0,0,0,.84,6.434h25.713a30.925,30.925,0,1,1,16.206,17.884v10.3a14.131,14.131,0,0,1,5.263-.024l.075.013.079.012a13.736,13.736,0,0,1,11.207,12.977l.078,2.2a14.035,14.035,0,0,1-.115,2.2,55.373,55.373,0,0,0,14.354-2.869,13.64,13.64,0,0,1-.955-1.989l-.775-2.063a13.742,13.742,0,0,1,5.328-16.273l.181-.122a13.736,13.736,0,0,1,17.069,1.27l1.614,1.5a14.325,14.325,0,0,1,1.475,1.635,55.187,55.187,0,0,0,8.106-12.183,12.932,12.932,0,0,1-2.069-.721l-2-.916a13.721,13.721,0,0,1-7.734-15.3l.015-.085.015-.073a13.735,13.735,0,0,1,12.971-11.207l2.2-.074a14.519,14.519,0,0,1,2.19.111,55.575,55.575,0,0,0-2.862-14.356,14.2,14.2,0,0,1-1.988.964l-2.06.769a13.734,13.734,0,0,1-16.293-5.359l-.084-.122a13.739,13.739,0,0,1,1.248-17.1l1.5-1.611a13.605,13.605,0,0,1,1.639-1.465,55.092,55.092,0,0,0-12.183-8.106,13.71,13.71,0,0,1-.727,2.063l-.909,2a13.6,13.6,0,0,1-4.813,5.689,13.9,13.9,0,0,1-10.493,2.051l-.153-.036A13.735,13.735,0,0,1,277.632,8.362l-.079-2.21a13.724,13.724,0,0,1,.116-2.184,55.277,55.277,0,0,0-14.352,2.868,13.976,13.976,0,0,1,.954,1.978l.774,2.063a13.727,13.727,0,0,1-5.33,16.273l-.177.122A13.723,13.723,0,0,1,242.466,26l-1.613-1.49a14.621,14.621,0,0,1-1.475-1.648,55.787,55.787,0,0,0-8.106,12.184,14.191,14.191,0,0,1,2.068.732M290.684,132.4l-5.869-1.306,3.549-4.859-7.214-7.678-5.064,3.223-.925-5.933-6.714-.208v15.8c.361-.061.662-.306,1.037-.293a5.841,5.841,0,1,1-4.37,9.912v17.1l8.719.269,1.3-5.835,4.83,3.528,7.676-7.215-3.219-5.054,5.936-.928ZM243.936,14.625l.029.11.107.013c.469.085.734.134,1.239.219a6.055,6.055,0,0,0,.916,1.429c-.137.488-.206.745-.323,1.209l-.027.1.082.073c.354.306.537.452.913.745l.1.073.1-.073c.4-.269.623-.428,1.044-.732a5.246,5.246,0,0,0,1.67.378c.252.452.387.684.633,1.123l.062.11.124-.037c.466-.1.7-.146,1.146-.269l.1-.036.02-.111c.087-.464.132-.732.215-1.233a6.5,6.5,0,0,0,1.427-.916c.49.135.746.208,1.2.317l.105.037.07-.085c.3-.354.45-.537.74-.916l.076-.1-.072-.111c-.273-.39-.43-.61-.731-1.038a5.082,5.082,0,0,0,.376-1.672c.394-.219.624-.354.96-.537l.269-.158-.027-.122c-.1-.464-.157-.7-.279-1.147l-.029-.1-.107-.024c-.469-.085-.736-.134-1.238-.22a5.859,5.859,0,0,0-.918-1.428c.137-.489.206-.745.322-1.2l.026-.111-.082-.061c-.353-.3-.537-.451-.911-.744l-.1-.074-.1.061c-.4.281-.62.439-1.038.732a4.983,4.983,0,0,0-1.681-.366c-.251-.452-.385-.7-.629-1.123l-.061-.111-.125.025c-.469.11-.7.158-1.146.28l-.1.037-.02.1c-.087.475-.131.732-.216,1.245a5.936,5.936,0,0,0-1.421.9c-.488-.135-.748-.208-1.2-.318l-.1-.024-.07.085c-.3.354-.452.526-.742.9l-.076.1.072.111c.273.39.43.61.73,1.037a5.111,5.111,0,0,0-.374,1.673c-.452.256-.693.39-1.123.634l-.11.061.026.122c.1.476.157.708.28,1.147M249,11.353a1.927,1.927,0,0,1,2.967,1.978,1.9,1.9,0,0,1-.819,1.22,1.927,1.927,0,0,1-2.968-1.977,1.9,1.9,0,0,1,.82-1.221M377.6,83.281l1.34-4.443-4.609-2.808L371,79.253c-.412-.159-.832-.306-1.254-.452l-.484-4.663-5.345-.794-1.825,4.322c-.345,0-.693.024-1.038.049l-2.2-4.089-5.243,1.27-.078,4.638c-.405.183-.809.367-1.2.574l-3.617-2.918L344.376,80.4l1.733,4.31c-.238.244-.472.5-.7.757l-4.447-1.331-2.809,4.6,3.228,3.333c-.165.415-.315.83-.455,1.257l-4.667.489-.8,5.335,4.324,1.831c.008.341.023.7.046,1.037l-4.088,2.2,1.271,5.237,4.644.085c.177.4.365.806.566,1.2l-2.916,3.625,3.209,4.334,4.312-1.733c.249.244.5.476.763.7l-1.338,4.456,4.607,2.8,3.337-3.223c.413.171.831.317,1.253.452l.485,4.675,5.343.793,1.826-4.321c.345-.013.69-.024,1.038-.049l2.2,4.09,5.243-1.27.078-4.639c.405-.183.809-.366,1.2-.573l3.617,2.917,4.337-3.211-1.733-4.309c.238-.244.474-.5.7-.769l4.448,1.342,2.808-4.6-3.228-3.344c.165-.415.315-.83.455-1.245l4.667-.488.8-5.347-4.324-1.819c-.008-.354-.023-.7-.046-1.038l4.089-2.2-1.272-5.249-4.646-.074c-.175-.4-.365-.805-.564-1.209l2.918-3.613-3.212-4.334-4.31,1.733c-.248-.244-.505-.476-.764-.708m-17.234,32.131a15.108,15.108,0,1,1,17.17-12.708,15.038,15.038,0,0,1-17.17,12.708M49.1,253.823c2.173-1.5,3.344-2.319,5.783-4.077a25.762,25.762,0,0,0,9.267,2.075c1.465,2.637,2.168,3.882,3.51,6.226,2.384-.513,3.569-.782,5.87-1.429.474-2.575.711-3.955,1.191-6.885a29.95,29.95,0,0,0,7.938-5.066c2.832.781,4.172,1.147,6.668,1.782,1.532-1.806,2.308-2.746,3.794-4.675-1.5-2.161-2.314-3.32-4.061-5.762a25.916,25.916,0,0,0,.855-2.637H72.55a10.248,10.248,0,0,1-1.428,1.44,10.859,10.859,0,0,1-12.088-18.043,10.415,10.415,0,0,1,2.718-1.122l6.113-15.687c-.631-.061-1.252-.208-1.883-.232-1.453-2.613-2.155-3.858-3.486-6.189-2.382.525-3.564.793-5.868,1.44-.474,2.551-.706,3.93-1.184,6.836a29.791,29.791,0,0,0-7.914,5.066c-2.826-.782-4.163-1.147-6.65-1.77-1.543,1.807-2.313,2.747-3.8,4.675,1.5,2.161,2.314,3.309,4.056,5.738a25.551,25.551,0,0,0-2.083,9.3c-2.635,1.465-3.885,2.173-6.227,3.516.516,2.38.79,3.565,1.431,5.86,2.565.476,3.949.708,6.87,1.184a29.55,29.55,0,0,0,5.092,7.96c-.793,2.844-1.158,4.187-1.8,6.677,1.82,1.538,2.753,2.319,4.678,3.8M75.6,94.012a16.034,16.034,0,0,0,29.32,10.84l2.733-7.007A16.141,16.141,0,0,0,75.6,94.012m250.02-65.03L323.925,31.3l2.883,3.064,2.424-1.538s.08.037.12.049l.442,2.844,4.209.122.623-2.808.107-.036,2.322,1.7,3.068-2.881-1.541-2.43.05-.11,2.846-.439.131-4.212L338.8,24a.738.738,0,0,0-.029-.085l1.683-2.369-2.883-3.064-2.434,1.55-.105-.049-.446-2.844-4.207-.135-.627,2.808a1.162,1.162,0,0,1-.111.049l-2.326-1.7-3.07,2.881,1.547,2.43s-.033.073-.052.11l-2.84.439-.132,4.212,2.806.623Zm4.526-4.786a2.963,2.963,0,0,1,.363-.293,3.013,3.013,0,0,1,1.672-.5h.137a3.024,3.024,0,0,1-.264,6.043,3.051,3.051,0,0,1-2.1-.977,3.023,3.023,0,0,1,.188-4.273M307.409,188.023l4.049-2.82-2.4-5.347-4.8,1.147c-.306-.317-.631-.623-.97-.916l.872-4.859-5.477-2.075-2.585,4.2a12.1,12.1,0,0,0-1.338.037l-2.815-4.053-5.347,2.405,1.143,4.8a11.538,11.538,0,0,0-.921.977l-4.849-.879-2.081,5.481,4.19,2.575a11.565,11.565,0,0,0,.04,1.355l-4.035,2.808,2.4,5.346,4.783-1.135a12.053,12.053,0,0,0,.988.928l-.868,4.833,5.477,2.076,2.577-4.187a11.973,11.973,0,0,0,1.331-.037l2.808,4.041,5.346-2.4-1.141-4.786a11.6,11.6,0,0,0,.925-.977l4.851.88,2.083-5.481-4.2-2.576a11.571,11.571,0,0,0-.04-1.355m-5.565,3.406a6.531,6.531,0,1,1-8.674-8.4,6.948,6.948,0,0,1,.946-.329,6.539,6.539,0,0,1,7.728,8.728M229.8,325.933a13.731,13.731,0,1,0,17.237,8.936,13.752,13.752,0,0,0-17.237-8.936m28.609,10.108,4.552-2.441-.886-3.65-5.169-.085a24.764,24.764,0,0,0-1.477-3.149l3.248-4.029-2.236-3.015-4.8,1.928a24.576,24.576,0,0,0-2.325-2.124l1.491-4.956-3.209-1.953-3.716,3.589a24.379,24.379,0,0,0-3.27-1.184l-.54-5.2-3.716-.55-2.036,4.81a22.583,22.583,0,0,0-3.156.146l-2.446-4.553-3.65.879-.087,5.176a24.529,24.529,0,0,0-3.145,1.477l-4.028-3.247-3.018,2.234,1.93,4.8a25.868,25.868,0,0,0-2.131,2.319l-4.95-1.49-1.956,3.211,3.593,3.724a24.222,24.222,0,0,0-1.183,3.272l-5.2.537-.555,3.711,4.817,2.039a24.594,24.594,0,0,0,.139,3.149l-4.552,2.454.887,3.65,5.169.085a24.817,24.817,0,0,0,1.475,3.149l-3.247,4.017,2.234,3.027,4.8-1.929a24.345,24.345,0,0,0,2.326,2.124l-1.491,4.957,3.21,1.953,3.716-3.589a24.443,24.443,0,0,0,3.268,1.172l.541,5.213,3.717.549,2.035-4.822a24.676,24.676,0,0,0,3.156-.134l2.444,4.553,3.652-.891.087-5.164a24.4,24.4,0,0,0,3.145-1.476l4.027,3.247,3.018-2.234-1.929-4.8a26.024,26.024,0,0,0,2.13-2.332l4.95,1.49,1.956-3.211-3.592-3.711a24.263,24.263,0,0,0,1.182-3.272l5.2-.537.553-3.724L258.55,339.2a24.957,24.957,0,0,0-.139-3.162m-5.766,5.494a19,19,0,1,1-15.987-21.6,19.013,19.013,0,0,1,15.987,21.6m5.6-55.118,2.816-3.858-3.889-4.139-4.035,2.564a10.582,10.582,0,0,0-1.177-.525l-.739-4.724-5.674-.183-1.038,4.675a10.968,10.968,0,0,0-1.215.452l-3.858-2.82-4.139,3.893,2.563,4.029a12.2,12.2,0,0,0-.536,1.183l-4.714.745-.175,5.665,4.652,1.038a10.917,10.917,0,0,0,.467,1.233l-2.807,3.845,3.889,4.139,4.019-2.564a10.926,10.926,0,0,0,1.2.549l.732,4.7,5.677.171,1.034-4.651c.411-.135.811-.281,1.206-.452l3.851,2.808,4.138-3.894-2.558-4.017a12.206,12.206,0,0,0,.536-1.183l4.719-.745.175-5.677-4.658-1.037a11.623,11.623,0,0,0-.464-1.221m-6.068,9.278a6.331,6.331,0,0,1-8.55-9.339,5.913,5.913,0,0,1,.762-.6,6.331,6.331,0,0,1,7.788,9.937m-40.363,75.321,2.9-3.088-3.742-6.214-4.085,1.111a14.005,14.005,0,0,0-1.247-.916l-.131-4.236-7.044-1.746-2.09,3.663a13.439,13.439,0,0,0-1.556.244l-3.074-2.893-6.22,3.735,1.117,4.078c-.332.4-.643.83-.93,1.257l-4.215.135-1.753,7.044,3.672,2.1a14.439,14.439,0,0,0,.23,1.514l-2.9,3.077,3.744,6.225,4.071-1.123a11.813,11.813,0,0,0,1.251.928l.128,4.236,7.044,1.746,2.1-3.663c.516-.061,1.032-.134,1.544-.244l3.089,2.905,6.219-3.735-1.121-4.089q.488-.605.911-1.245l4.246-.135,1.751-7.044-3.683-2.087a15.127,15.127,0,0,0-.229-1.538m-12.348,8.241-.18.061a5.614,5.614,0,0,1-3.1-10.792,5.24,5.24,0,0,1,1.556-.232,5.618,5.618,0,0,1,1.726,10.963M181.662,348l-.729,2.881a.227.227,0,0,0,.1.257,12.946,12.946,0,0,0,2.524,1.27.247.247,0,0,0,.278-.085L185.621,350c.3.073.571.134.828.171l.8,2.857s.118.171.221.183a11.665,11.665,0,0,0,1.462-.013c.424-.024.879-.085,1.352-.159a.23.23,0,0,0,.2-.208l.382-2.905c.262-.073.527-.171.805-.269l2.127,2.076a.248.248,0,0,0,.283.048c.441-.232.865-.488,1.272-.757.374-.256.734-.525,1.076-.806a.245.245,0,0,0,.069-.28l-1.122-2.723c.2-.208.385-.415.557-.623l2.886.732s.208-.012.263-.11a13.539,13.539,0,0,0,1.259-2.515.251.251,0,0,0-.081-.28l-2.334-1.783c.069-.268.124-.549.17-.842l2.863-.793a.232.232,0,0,0,.177-.22,12.575,12.575,0,0,0-.01-1.465c-.035-.476-.088-.94-.158-1.355a.245.245,0,0,0-.208-.2l-2.918-.378a7.985,7.985,0,0,0-.26-.806l2.077-2.137a.237.237,0,0,0,.041-.28,13.13,13.13,0,0,0-1.563-2.344.241.241,0,0,0-.278-.073l-2.713,1.123c-.2-.195-.415-.378-.632-.562l.732-2.869a.241.241,0,0,0-.1-.269,12.479,12.479,0,0,0-2.52-1.257.237.237,0,0,0-.276.074l-1.787,2.331c-.262-.06-.537-.121-.828-.171l-.805-2.857-.221-.183c-.465-.024-.957-.012-1.461.013s-.949.1-1.351.159a.26.26,0,0,0-.2.208l-.385,2.917a7.943,7.943,0,0,0-.8.269l-2.127-2.087a.241.241,0,0,0-.281-.036,12.766,12.766,0,0,0-2.35,1.563.241.241,0,0,0-.067.28l1.125,2.71c-.188.2-.376.4-.566.634l-2.882-.744a.254.254,0,0,0-.265.11,12.849,12.849,0,0,0-1.257,2.515s-.006.219.079.28l2.328,1.794c-.064.269-.12.537-.171.83l-2.858.793a.245.245,0,0,0-.177.22,13.666,13.666,0,0,0,.011,1.465c.043.537.094.964.159,1.355a.232.232,0,0,0,.208.2l2.913.391c.085.293.173.549.269.806l-2.081,2.124s-.09.2-.043.28a13.193,13.193,0,0,0,1.563,2.344.35.35,0,0,0,.182.11l2.812-1.16c.193.183.4.378.626.562m.446-8.484a6.061,6.061,0,0,1,.646-2.148,2.961,2.961,0,0,0,3.473.208l.072-.037a3,3,0,0,0,1.187-3.369,5.25,5.25,0,0,1,1.245,0,5.9,5.9,0,0,1,2.148.647,2.981,2.981,0,0,0-.211,3.467,2.976,2.976,0,0,0,3.418,1.257,6.1,6.1,0,0,1-.65,3.394,2.963,2.963,0,0,0-1.221-.586,2.923,2.923,0,0,0-2.252.378,2.99,2.99,0,0,0-1.261,3.418,7.026,7.026,0,0,1-1.245,0,6.142,6.142,0,0,1-2.147-.647,3.02,3.02,0,0,0,.592-1.22,2.983,2.983,0,0,0-3.8-3.516,6.077,6.077,0,0,1,0-1.245m98.535-105.108,4.239-5.75-6.387-8.228-6.608,2.673a24.351,24.351,0,0,0-3.65-2.075l-1.056-7.044-2.066-.256v19.642h-.144a11.431,11.431,0,0,1-1.828,19.789c-.118.049-.237.11-.358.158h0a11.554,11.554,0,0,1-15.09-6.152,11.228,11.228,0,0,1,4.231-13.795H232.708l-3.1.464-1.308,10.34,6.548,2.771a23.81,23.81,0,0,0,1.108,4.029l-4.23,5.725,6.391,8.228,6.586-2.673a23.365,23.365,0,0,0,3.654,2.087l1.058,7.056,10.343,1.294,2.773-6.556a23.572,23.572,0,0,0,4.068-1.111l5.741,4.236,8.237-6.384-2.686-6.617a23.938,23.938,0,0,0,2.063-3.637l7.067-1.062,1.3-10.34-6.574-2.771a23.642,23.642,0,0,0-1.108-4.041M242.589,383.981c-.2-.927-.308-1.379-.559-2.282-1-.183-1.538-.281-2.671-.464a11.594,11.594,0,0,0-1.992-3.114c.308-1.1.449-1.611.7-2.575-.708-.611-1.072-.9-1.822-1.49-.846.586-1.3.9-2.24,1.575a9.909,9.909,0,0,0-3.638-.806c-.567-1.013-.839-1.5-1.36-2.4-.929.2-1.39.3-2.287.549-.183,1-.275,1.538-.463,2.673a11.506,11.506,0,0,0-3.084,1.978c-1.1-.3-1.624-.451-2.594-.7-.6.708-.9,1.074-1.482,1.819.583.843.9,1.294,1.581,2.246a9.87,9.87,0,0,0-.811,3.626c-1.029.562-1.517.842-2.43,1.367.2.928.308,1.392.559,2.283,1,.183,1.539.281,2.678.464a11.475,11.475,0,0,0,1.985,3.1c-.309,1.111-.451,1.636-.7,2.6.71.61,1.073.9,1.823,1.489.847-.586,1.3-.9,2.255-1.587a10.3,10.3,0,0,0,3.613.806c.571,1.025.846,1.513,1.368,2.429.928-.208,1.392-.317,2.29-.562.184-1,.276-1.537.464-2.685a11.587,11.587,0,0,0,3.095-1.978c1.1.3,1.625.451,2.6.7.6-.708.9-1.062,1.479-1.819-.585-.843-.9-1.294-1.582-2.246a9.944,9.944,0,0,0,.81-3.626c1.024-.562,1.51-.842,2.421-1.368m-10.221,4.53a4.233,4.233,0,1,1,1.16-5.872,4.254,4.254,0,0,1-1.16,5.872M448.49,175.217a5.829,5.829,0,0,0-.269-.988l1.538-.671a7.449,7.449,0,0,0-1.552-2.43l-1.249,1.123a5.839,5.839,0,0,0-.784-.659,6.626,6.626,0,0,0-.89-.513l.618-1.55a7.3,7.3,0,0,0-2.815-.623L443,170.578a5.777,5.777,0,0,0-1.019.085,5.264,5.264,0,0,0-.989.281l-.665-1.551a7.272,7.272,0,0,0-2.426,1.563l1.117,1.245a5.673,5.673,0,0,0-.66.781,5.775,5.775,0,0,0-.508.891l-1.558-.623a7.3,7.3,0,0,0-.62,2.821l1.674.085a5.617,5.617,0,0,0,.359,2.014l-1.539.66a7.163,7.163,0,0,0,1.552,2.429l1.248-1.111a7.122,7.122,0,0,0,.784.66,5.5,5.5,0,0,0,.891.5l-.62,1.563a7.322,7.322,0,0,0,2.814.623l.092-1.673a5.84,5.84,0,0,0,1.022-.1,5.336,5.336,0,0,0,.989-.269l.664,1.538a7.108,7.108,0,0,0,2.427-1.551l-1.118-1.245a5.8,5.8,0,0,0,.66-.781,6.074,6.074,0,0,0,.507-.891l1.559.611a7.2,7.2,0,0,0,.616-2.808l-1.672-.1a5.382,5.382,0,0,0-.088-1.014m-2.148,3.382a4.149,4.149,0,1,1-.974-5.774,4.15,4.15,0,0,1,.974,5.774m27.606-50.979a.773.773,0,0,0,.572-.708,39.826,39.826,0,0,0-.033-4.712c-.111-1.551-.283-3.028-.51-4.358a.772.772,0,0,0-.668-.648l-9.4-1.233c-.243-.879-.521-1.733-.836-2.575l6.692-6.886a.776.776,0,0,0,.132-.9,41.993,41.993,0,0,0-5.032-7.557.789.789,0,0,0-.9-.232l-8.744,3.614c-.651-.623-1.333-1.233-2.039-1.794l2.362-9.279a.788.788,0,0,0-.332-.855,41.149,41.149,0,0,0-8.119-4.053.767.767,0,0,0-.893.256l-5.759,7.5c-.84-.208-1.733-.378-2.662-.537l-2.6-9.229a.777.777,0,0,0-.712-.562,35.843,35.843,0,0,0-4.708.049,43.629,43.629,0,0,0-4.358.5.788.788,0,0,0-.644.671l-1.239,9.376c-.9.269-1.761.549-2.582.866l-6.852-6.7a.784.784,0,0,0-.907-.135,41.8,41.8,0,0,0-7.569,5.03.769.769,0,0,0-.22.89l3.626,8.753c-.607.623-1.209,1.294-1.828,2.039l-9.281-2.369a.78.78,0,0,0-.852.33A42.251,42.251,0,0,0,393,110.285a.778.778,0,0,0,.256.891l7.511,5.774q-.311,1.3-.553,2.673L391,122.187a.79.79,0,0,0-.571.721,43.635,43.635,0,0,0,.032,4.712c.141,1.721.3,3.113.517,4.37a.8.8,0,0,0,.669.647l9.391,1.245c.269.916.553,1.77.861,2.576l-6.705,6.861a.793.793,0,0,0-.133.916,42.094,42.094,0,0,0,5.031,7.556.785.785,0,0,0,.9.22l8.744-3.613c.621.6,1.3,1.209,2.019,1.806l-2.352,9.266a.757.757,0,0,0,.334.842,41.241,41.241,0,0,0,8.133,4.09.791.791,0,0,0,.894-.269l5.744-7.508c.959.233,1.839.415,2.671.55l2.59,9.2a.773.773,0,0,0,.713.574,37.972,37.972,0,0,0,4.711-.037c1.364-.085,2.829-.256,4.354-.5a.79.79,0,0,0,.653-.671l1.228-9.387c.843-.233,1.7-.513,2.591-.855l6.861,6.7a.783.783,0,0,0,.907.134,44.146,44.146,0,0,0,4.1-2.416q1.816-1.228,3.468-2.6a.788.788,0,0,0,.222-.9l-3.617-8.765c.641-.671,1.242-1.343,1.8-2.015l9.3,2.356a.785.785,0,0,0,.851-.341,43.363,43.363,0,0,0,4.056-8.106.787.787,0,0,0-.256-.9l-7.525-5.75c.218-.879.4-1.77.544-2.7Zm-22.17-.66a19.368,19.368,0,0,1-2.085,6.922,9.628,9.628,0,0,0-15.25,10.34,19.461,19.461,0,0,1-10.929-2.1,9.635,9.635,0,0,0,.673-11.183,9.651,9.651,0,0,0-11.01-4.065,19.492,19.492,0,0,1,2.1-10.926,9.655,9.655,0,0,0,11.19.671l.232-.146a9.648,9.648,0,0,0,3.825-10.865,19.2,19.2,0,0,1,4.012.013,19.488,19.488,0,0,1,6.92,2.087,9.62,9.62,0,0,0,10.337,15.248,19.681,19.681,0,0,1-.012,4m-21.168,55.569c-.241-1.111-.372-1.672-.673-2.759-1.207-.22-1.857-.33-3.224-.562a14.151,14.151,0,0,0-2.4-3.748c.369-1.331.54-1.953.839-3.113-.855-.732-1.294-1.1-2.2-1.794-1.019.708-1.563,1.086-2.7,1.9a11.95,11.95,0,0,0-4.39-.977c-.684-1.233-1.015-1.819-1.641-2.905-1.12.244-1.677.366-2.762.671-.221,1.209-.331,1.856-.556,3.223a13.946,13.946,0,0,0-3.724,2.38c-1.329-.378-1.958-.537-3.13-.843-.725.855-1.086,1.295-1.788,2.21.7,1.014,1.089,1.551,1.909,2.7a12.017,12.017,0,0,0-.981,4.371c-1.239.7-1.827,1.025-2.929,1.66.243,1.123.372,1.673.674,2.759,1.208.219,1.859.329,3.232.562a13.975,13.975,0,0,0,2.4,3.735c-.372,1.342-.545,1.965-.846,3.149.856.721,1.3,1.086,2.2,1.783,1.023-.708,1.575-1.1,2.721-1.917a12.3,12.3,0,0,0,4.362.976c.688,1.234,1.021,1.82,1.652,2.93,1.12-.244,1.679-.378,2.76-.671.224-1.221.334-1.868.56-3.247a14.02,14.02,0,0,0,3.735-2.38c1.331.366,1.962.537,3.138.842.722-.855,1.086-1.294,1.785-2.2-.706-1.026-1.088-1.575-1.91-2.71a12.058,12.058,0,0,0,.978-4.383c1.235-.683,1.82-1.013,2.919-1.648m-12.336,5.457a5.107,5.107,0,1,1,1.4-7.081,5.114,5.114,0,0,1-1.4,7.081m-100.208-8.972c1.564-2.32,2.292-3.418,3.615-5.481-1.159-1.99-1.767-2.991-3.04-4.981-2.4.671-3.683,1.037-6.391,1.856a24.427,24.427,0,0,0-7.747-4.9c-.508-2.857-.761-4.224-1.248-6.775-2.3-.293-3.441-.415-5.7-.574-1.2,2.185-1.829,3.37-3.142,5.86a27.5,27.5,0,0,0-8.646,2.088c-2.3-1.624-3.389-2.381-5.429-3.76-1.936,1.16-2.913,1.77-4.836,3.052.687,2.454,1.068,3.773,1.9,6.544a24.706,24.706,0,0,0-4.7,7.825c-2.811.488-4.148.732-6.659,1.209-.26,2.343-.372,3.5-.5,5.811,2.159,1.257,3.331,1.917,5.807,3.3a29.247,29.247,0,0,0,2.153,8.9c-1.574,2.343-2.312,3.455-3.643,5.53,1.166,1.99,1.767,2.991,3.043,4.969,2.407-.671,3.711-1.038,6.432-1.868a24.544,24.544,0,0,0,7.692,4.871c.513,2.881.766,4.248,1.256,6.824,2.3.293,3.446.428,5.706.586,1.209-2.2,1.841-3.393,3.163-5.908a27.265,27.265,0,0,0,8.666-2.087c2.3,1.635,3.4,2.4,5.443,3.784,1.928-1.159,2.907-1.77,4.83-3.052-.69-2.454-1.066-3.785-1.9-6.568a24.376,24.376,0,0,0,4.7-7.813c2.8-.489,4.131-.745,6.632-1.209.262-2.344.375-3.5.5-5.824-2.159-1.245-3.326-1.917-5.793-3.283a29.589,29.589,0,0,0-2.159-8.924m-16.778,30.947a21.4,21.4,0,0,1-25.947-15.553c-3.046-11.56,3.628-23.341,14.912-26.307a21.652,21.652,0,0,1,11.035,41.861m93.45-48.172-1.259.476a8.4,8.4,0,0,1-9.957-3.272l-.051-.073a8.393,8.393,0,0,1,.763-10.45l.918-.988a9.1,9.1,0,0,1,1-.9,33.873,33.873,0,0,0-7.446-4.944,8.931,8.931,0,0,1-.443,1.257l-.557,1.221a8.332,8.332,0,0,1-2.94,3.479,8.469,8.469,0,0,1-6.412,1.245l-.094-.013a8.384,8.384,0,0,1-6.847-7.923l-.049-1.342a8.265,8.265,0,0,1,.071-1.343,34.14,34.14,0,0,0-8.771,1.746,9.4,9.4,0,0,1,.583,1.209l.473,1.27a8.38,8.38,0,0,1-3.256,9.936l-.11.074a8.378,8.378,0,0,1-10.433-.769l-.984-.916a7.848,7.848,0,0,1-.9-1,33.888,33.888,0,0,0-4.955,7.446,8.092,8.092,0,0,1,1.265.44l1.224.562a8.388,8.388,0,0,1,4.726,9.35l-.019.1a8.51,8.51,0,0,1-3.594,5.444,8.186,8.186,0,0,1-4.332,1.392l-1.346.049a8.073,8.073,0,0,1-1.338-.061,33.912,33.912,0,0,0,1.749,8.766,8.36,8.36,0,0,1,1.215-.586l1.259-.464a8.38,8.38,0,0,1,9.957,3.272l.051.073a8.392,8.392,0,0,1-.763,10.449l-.916.989a8.214,8.214,0,0,1-1,.891,33.472,33.472,0,0,0,7.445,4.956,8.1,8.1,0,0,1,.444-1.257l.557-1.233a8.41,8.41,0,0,1,9.351-4.725l.046.013.049.012a8.385,8.385,0,0,1,6.849,7.924l.049,1.342a8.9,8.9,0,0,1-.07,1.343,34.207,34.207,0,0,0,8.771-1.746,8.423,8.423,0,0,1-.584-1.221l-.474-1.257a8.407,8.407,0,0,1,3.256-9.95l.111-.073a8.394,8.394,0,0,1,10.431.781l.986.916a7.774,7.774,0,0,1,.9,1,33.972,33.972,0,0,0,4.955-7.446,8.087,8.087,0,0,1-1.265-.452l-1.226-.549a8.4,8.4,0,0,1-4.726-9.351l.009-.049.011-.049a8.4,8.4,0,0,1,7.926-6.849l1.345-.049a9.7,9.7,0,0,1,1.337.073,33.727,33.727,0,0,0-1.749-8.765,8.4,8.4,0,0,1-1.215.573M374.2,187.925a18.9,18.9,0,1,1,5.182-26.209,18.9,18.9,0,0,1-5.182,26.209M133.976,47.257a29.587,29.587,0,0,0,1.425,5.213l-8.118,3.5a38.239,38.239,0,0,0,8.185,12.805l6.589-5.9a29.769,29.769,0,0,0,4.137,3.479,30.74,30.74,0,0,0,4.7,2.686l-.276.7h20.428l.271.671c.745-.208,1.532-.342,2.249-.61l3.5,8.118a38.306,38.306,0,0,0,12.808-8.179l-5.9-6.593a30.069,30.069,0,0,0,6.163-8.826l8.22,3.259a38.274,38.274,0,0,0,3.263-14.844l-8.829-.488a29.864,29.864,0,0,0-1.887-10.608l8.118-3.5a38.23,38.23,0,0,0-8.187-12.805l-6.589,5.9a29.92,29.92,0,0,0-4.135-3.479,30.79,30.79,0,0,0-4.7-2.686l3.265-8.216a38.172,38.172,0,0,0-14.848-3.26l-.484,8.827a28.909,28.909,0,0,0-5.39.464,29.3,29.3,0,0,0-5.215,1.429l-3.5-8.119a38.325,38.325,0,0,0-12.809,8.18l5.9,6.592a29.851,29.851,0,0,0-6.163,8.838l-8.22-3.272a38.291,38.291,0,0,0-3.265,14.844l8.829.489a29.865,29.865,0,0,0,.464,5.4m11.345-17.9a21.89,21.89,0,1,1,5.138,30.531,21.891,21.891,0,0,1-5.138-30.531M50.973,113.043l1.645-.757A11.309,11.309,0,0,1,66.3,115.692l.04.061.04.049a11.293,11.293,0,0,1,.006,14.1l-1.132,1.4a11.869,11.869,0,0,1-1.25,1.306,45.6,45.6,0,0,0,10.474,5.933,11.2,11.2,0,0,1,.475-1.746l.625-1.709a11.305,11.305,0,0,1,12.064-7.263l.177.024a11.388,11.388,0,0,1,6.821,3.381l4.245-10.9a25.452,25.452,0,1,1,14.527-37.282l3.009-7.728a11.2,11.2,0,0,1,.446-13.269L118,60.636a10.47,10.47,0,0,1,1.25-1.294,45.181,45.181,0,0,0-10.475-5.933,11.3,11.3,0,0,1-.474,1.746l-.624,1.7a11.3,11.3,0,0,1-12.068,7.276l-.174-.024a11.292,11.292,0,0,1-9.951-9.962l-.2-1.807a11.259,11.259,0,0,1-.036-1.806,45.534,45.534,0,0,0-11.6,3.222,11.174,11.174,0,0,1,.9,1.575l.758,1.635a11.3,11.3,0,0,1-3.409,13.685l-.1.085a11.432,11.432,0,0,1-8.454,2.393,11.26,11.26,0,0,1-5.645-2.393L56.292,69.6a11.319,11.319,0,0,1-1.3-1.245A45.693,45.693,0,0,0,49.06,78.825a11.258,11.258,0,0,1,1.749.476l1.7.623A11.3,11.3,0,0,1,59.775,92.01l-.015.134a11.294,11.294,0,0,1-9.966,9.974l-1.8.195a12.906,12.906,0,0,1-1.814.037,45.53,45.53,0,0,0,3.23,11.6,11.85,11.85,0,0,1,1.563-.9m47.3-74.54a8.324,8.324,0,0,0,.394,1.44l-2.246.964a10.561,10.561,0,0,0,2.266,3.553l1.82-1.636a9.155,9.155,0,0,0,1.145.964,8.529,8.529,0,0,0,1.3.745l-.9,2.271a10.616,10.616,0,0,0,4.108.9l.134-2.441a7.8,7.8,0,0,0,1.49-.134,8.052,8.052,0,0,0,1.443-.391l.968,2.246a10.5,10.5,0,0,0,3.543-2.271L112.1,42.9a7.373,7.373,0,0,0,.964-1.147,7.921,7.921,0,0,0,.742-1.295l2.273.9a10.578,10.578,0,0,0,.9-4.1l-2.441-.135a8.23,8.23,0,0,0-.522-2.942l2.244-.964A10.585,10.585,0,0,0,114,29.677L112.173,31.3a8.843,8.843,0,0,0-1.145-.964,8.258,8.258,0,0,0-1.3-.732l.9-2.283a10.4,10.4,0,0,0-4.106-.891l-.135,2.442a7.714,7.714,0,0,0-1.491.121,8.077,8.077,0,0,0-1.442.391l-.97-2.246a10.743,10.743,0,0,0-3.541,2.271l1.631,1.82a8.325,8.325,0,0,0-.963,1.147,8.2,8.2,0,0,0-.74,1.294l-2.274-.9a10.641,10.641,0,0,0-.9,4.115l2.441.134a8.27,8.27,0,0,0,.128,1.49m3.139-4.956a6.057,6.057,0,1,1,1.421,8.447,6.053,6.053,0,0,1-1.421-8.447M186.3,322.662l-2.026-12.256a41.557,41.557,0,0,0,13.963-5.823l7.282,10.071a53.71,53.71,0,0,0,15.064-15.137l-10.1-7.227a41.963,41.963,0,0,0,5.757-14l12.263,1.978a53.738,53.738,0,0,0-.044-21.352L216.2,260.94a41.861,41.861,0,0,0-5.824-13.965l10.068-7.288a53.359,53.359,0,0,0-5.179-6.312H199.043l-.969,1.355c-.809-.525-1.742-.891-2.6-1.355h-27.22l-1.663-4.334a42.049,42.049,0,0,0-13.834,5.787l-7.282-10.072a53.878,53.878,0,0,0-15.064,15.138l10.1,7.239A42.6,42.6,0,0,0,137,253.859a42.045,42.045,0,0,0-2.244,7.263l-12.261-1.977a53.812,53.812,0,0,0,.044,21.363l12.258-2.027a42.077,42.077,0,0,0,5.822,13.965l-10.068,7.277a53.827,53.827,0,0,0,15.137,15.064l7.233-10.1a42.9,42.9,0,0,0,6.736,3.516,42.016,42.016,0,0,0,7.256,2.234l-1.971,12.269a53.5,53.5,0,0,0,21.354-.049m-39.289-41.4A30.747,30.747,0,1,1,187.057,298.2a30.747,30.747,0,0,1-40.051-16.932M27.791,107.623c-.448.66-.658.977-1.038,1.575.332.562.5.855.867,1.416.687-.2,1.059-.306,1.834-.537a7.1,7.1,0,0,0,2.194,1.392c.146.818.218,1.209.357,1.941.657.085.983.122,1.627.171.346-.634.527-.964.9-1.685a7.835,7.835,0,0,0,2.472-.6c.656.475.968.683,1.551,1.086.551-.342.829-.513,1.378-.88-.2-.7-.3-1.074-.54-1.867a7.051,7.051,0,0,0,1.338-2.234c.8-.135,1.178-.208,1.892-.342.074-.671.107-1,.142-1.66-.615-.354-.948-.55-1.652-.94a8.329,8.329,0,0,0-.616-2.539c.446-.66.653-.977,1.031-1.563-.33-.574-.5-.855-.867-1.416-.684.183-1.05.293-1.822.525a6.673,6.673,0,0,0-2.21-1.392c-.143-.818-.217-1.209-.355-1.941-.655-.085-.981-.122-1.627-.159-.343.623-.521.952-.895,1.673a7.792,7.792,0,0,0-2.467.6c-.656-.464-.966-.684-1.547-1.074-.552.33-.831.5-1.379.866.195.7.306,1.075.54,1.868a6.968,6.968,0,0,0-1.34,2.234c-.8.135-1.183.208-1.9.342-.075.671-.107,1-.142,1.66.615.354.949.537,1.655.94a8.525,8.525,0,0,0,.614,2.539m4.778-8.814a6.176,6.176,0,1,1-4.251,7.508,6.1,6.1,0,0,1,4.251-7.508M205.283,17.982a12.286,12.286,0,0,0,.588,2.148l-3.344,1.44a15.754,15.754,0,0,0,3.372,5.274l2.713-2.429a12.5,12.5,0,0,0,1.7,1.44,12.993,12.993,0,0,0,1.935,1.1l-1.344,3.381a15.715,15.715,0,0,0,6.117,1.355l.2-3.638a12.489,12.489,0,0,0,4.368-.781l1.443,3.344a15.869,15.869,0,0,0,5.275-3.369l-2.431-2.723a12.052,12.052,0,0,0,1.434-1.7,11.9,11.9,0,0,0,1.1-1.942l3.385,1.355a15.834,15.834,0,0,0,1.346-6.116l-3.638-.208a12.243,12.243,0,0,0-.776-4.371l3.344-1.44A15.749,15.749,0,0,0,228.7,4.834l-2.714,2.43a12.3,12.3,0,0,0-1.7-1.429,12.043,12.043,0,0,0-1.935-1.111L223.7,1.343A15.707,15.707,0,0,0,217.581,0l-.2,3.638a11.383,11.383,0,0,0-2.22.183,12.348,12.348,0,0,0-2.148.586l-1.44-3.345a15.877,15.877,0,0,0-5.277,3.381l2.43,2.71a12.905,12.905,0,0,0-1.435,1.7,12.125,12.125,0,0,0-1.1,1.941L202.8,9.449a15.7,15.7,0,0,0-1.342,6.116l3.635.195a12.462,12.462,0,0,0,.19,2.222m4.674-7.374a9.017,9.017,0,1,1,2.115,12.575,9.024,9.024,0,0,1-2.115-12.575M183.672,289.848a21.738,21.738,0,1,0-28.322-11.964,21.729,21.729,0,0,0,28.322,11.964m-67.154,1.721,3.563-4.87-4.916-5.238-5.1,3.247a13.389,13.389,0,0,0-1.488-.671l-.932-5.97-7.177-.232-1.313,5.909a13.9,13.9,0,0,0-1.535.573l-4.878-3.565-5.232,4.92,3.241,5.1a13.548,13.548,0,0,0-.678,1.49l-5.961.94-.222,7.166,5.884,1.318a13.961,13.961,0,0,0,.59,1.55L86.809,308.1l4.919,5.238L96.81,310.1a13.666,13.666,0,0,0,1.517.684l.926,5.946,7.178.219,1.307-5.884a13.669,13.669,0,0,0,1.525-.574l4.868,3.553,5.234-4.92-3.235-5.079a14.791,14.791,0,0,0,.678-1.5l5.966-.94.223-7.179-5.89-1.306a15.1,15.1,0,0,0-.588-1.551m-7.671,11.72a7.907,7.907,0,0,1-5.757,2.1,8.017,8.017,0,0,1-7.644-8.349,7.923,7.923,0,0,1,2.59-5.542,7.443,7.443,0,0,1,.964-.757,8,8,0,0,1,9.847,12.55M15.427,147.652a18.677,18.677,0,0,0,.432,1.868l-4.84,2.087.563,1.452a23.811,23.811,0,0,0,5.151,8.057l1.085,1.123,3.927-3.516a18.352,18.352,0,0,0,3.152,2.2L22.95,165.83l1.429.623a23.963,23.963,0,0,0,9.341,2.063l1.558.024.288-5.261c.641-.049,1.279-.135,1.91-.244a16.4,16.4,0,0,0,1.874-.439l2.087,4.846,1.454-.562a24.09,24.09,0,0,0,8.059-5.151l1.121-1.086-3.516-3.931a17.527,17.527,0,0,0,1.18-1.513,19.223,19.223,0,0,0,1.019-1.636l4.9,1.941.633-1.415a24.013,24.013,0,0,0,2.053-9.351l.024-1.55-5.261-.294a18.972,18.972,0,0,0-.241-1.9,19.164,19.164,0,0,0-.434-1.88l4.839-2.087-.562-1.453a24.04,24.04,0,0,0-5.149-8.057l-1.086-1.122L46.545,129.9c-.488-.415-1-.818-1.521-1.184a17.839,17.839,0,0,0-1.632-1.013l1.946-4.9-1.427-.635a23.932,23.932,0,0,0-9.342-2.051l-1.557-.024-.288,5.249c-.642.061-1.28.134-1.909.244s-1.259.257-1.877.44L26.851,121.2l-1.456.562a23.7,23.7,0,0,0-8.059,5.152l-1.121,1.074,3.519,3.931a17.036,17.036,0,0,0-1.181,1.526,18.588,18.588,0,0,0-1.021,1.624l-4.9-1.941L12,134.553a23.953,23.953,0,0,0-2.054,9.339l-.025,1.551,5.261.293c.05.647.129,1.281.243,1.917M25,137.8a11.158,11.158,0,0,1,7.282-4.553,10.878,10.878,0,0,1,1.886-.159,11.064,11.064,0,0,1,6.485,2.087A11.224,11.224,0,1,1,25,137.8m85.74,127.473c2.82-3.382,4.239-5.127,6.967-8.717-2.841-4.1-4.378-6.3-7.685-10.913a47.124,47.124,0,0,0,3.088-12.269h-6.976A40.573,40.573,0,0,1,88.695,261.05C69.773,273.721,43.9,268.289,30.91,248.891s-8.182-45.388,10.743-58.06a40.539,40.539,0,0,1,31.984-5.677l2.573-6.6a46.634,46.634,0,0,0-9.906-1.563c-2.762-4.956-4.093-7.3-6.622-11.707-4.424.927-6.618,1.416-10.892,2.575-.826,4.8-1.231,7.374-2.061,12.818A53.693,53.693,0,0,0,32.1,190.038c-5.276-1.538-7.773-2.246-12.418-3.479-2.832,3.369-4.245,5.115-6.98,8.7,2.831,4.09,4.377,6.287,7.673,10.877A47.688,47.688,0,0,0,16.7,223.572c-4.876,2.7-7.186,3.991-11.523,6.457,1.014,4.493,1.551,6.715,2.791,11.049,4.788.952,7.366,1.416,12.813,2.38a57.306,57.306,0,0,0,9.649,15.064c-1.417,5.31-2.067,7.825-3.2,12.5,3.418,2.943,5.173,4.42,8.783,7.251,4.016-2.783,6.179-4.3,10.679-7.556a47.8,47.8,0,0,0,17.3,4.089c2.782,4.993,4.122,7.361,6.667,11.793,4.424-.916,6.627-1.416,10.9-2.564.83-4.834,1.241-7.422,2.072-12.916a53.488,53.488,0,0,0,14.669-9.363c5.291,1.55,7.791,2.258,12.451,3.516M5.216,184.605c.7-.488,1.071-.745,1.852-1.307a8.351,8.351,0,0,0,2.97.66c.47.842.7,1.245,1.126,2,.763-.171,1.143-.256,1.88-.464.153-.819.229-1.27.382-2.21a9.42,9.42,0,0,0,2.545-1.624c.907.256,1.337.378,2.137.573.492-.573.739-.879,1.217-1.5-.481-.684-.742-1.062-1.3-1.843a8.1,8.1,0,0,0,.665-2.979c.843-.464,1.241-.7,1.99-1.123-.165-.757-.253-1.135-.459-1.88-.821-.146-1.265-.22-2.2-.378a9.466,9.466,0,0,0-1.636-2.552c.252-.9.368-1.331.571-2.124-.581-.5-.882-.744-1.5-1.22-.693.476-1.065.732-1.84,1.294a7.957,7.957,0,0,0-2.991-.66c-.466-.842-.691-1.245-1.117-1.989-.763.171-1.143.256-1.88.464-.153.818-.227,1.257-.382,2.185a9.727,9.727,0,0,0-2.536,1.635c-.9-.256-1.333-.378-2.131-.573-.494.586-.741.879-1.218,1.5.479.684.742,1.062,1.3,1.831A8.249,8.249,0,0,0,2,175.315c-.846.464-1.245.7-2,1.123.164.757.253,1.136.457,1.88.823.146,1.267.22,2.2.378a9.606,9.606,0,0,0,1.631,2.552c-.253.9-.37,1.342-.575,2.136.583.489.883.745,1.5,1.221M8.4,172.727a3.482,3.482,0,1,1-.952,4.834,3.5,3.5,0,0,1,.952-4.834" fill="#595651"/>
    </g>
  </g>
</svg>
